<svg width="55" height="38" viewBox="0 0 55 38" fill="none" xmlns="http://www.w3.org/2000/svg">
<path d="M9.136 34.312C9.27467 34.6213 9.28 34.9253 9.152 35.224C9.024 35.512 8.82133 35.7787 8.544 36.024C8.26667 36.2693 7.94667 36.4827 7.584 36.664C7.232 36.8453 6.896 36.9733 6.576 37.048C6.224 37.1227 5.85067 37.1547 5.456 37.144C5.072 37.144 4.68267 37.096 4.288 37C3.904 36.9147 3.52533 36.7867 3.152 36.616C2.78933 36.4347 2.45333 36.216 2.144 35.96C1.77067 35.6507 1.47733 35.2827 1.264 34.856C1.06133 34.4187 0.912 33.9547 0.816 33.464C0.72 32.9733 0.666667 32.4827 0.656 31.992C0.656 31.4907 0.672 31.0213 0.704 30.584C0.736 30.1893 0.816 29.7787 0.944 29.352C1.072 28.9253 1.248 28.5093 1.472 28.104C1.70667 27.688 1.984 27.304 2.304 26.952C2.63467 26.6 3.01867 26.3013 3.456 26.056C3.78667 25.864 4.15467 25.736 4.56 25.672C4.976 25.5973 5.392 25.5813 5.808 25.624C6.23467 25.656 6.63467 25.7467 7.008 25.896C7.392 26.0347 7.71733 26.2267 7.984 26.472C8.15467 26.6213 8.33067 26.8293 8.512 27.096C8.704 27.3627 8.84267 27.6347 8.928 27.912C9.01333 28.1893 9.01333 28.4507 8.928 28.696C8.85333 28.9307 8.64 29.0907 8.288 29.176C8.13867 29.2187 8.00533 29.2293 7.888 29.208C7.77067 29.176 7.664 29.128 7.568 29.064C7.472 28.9893 7.38133 28.904 7.296 28.808C7.21067 28.712 7.13067 28.616 7.056 28.52C6.8 28.2107 6.50133 28.0027 6.16 27.896C5.81867 27.7787 5.47733 27.752 5.136 27.816C4.80533 27.8693 4.49067 28.008 4.192 28.232C3.904 28.4453 3.68 28.7227 3.52 29.064C3.34933 29.4267 3.21067 29.8267 3.104 30.264C3.008 30.6907 2.95467 31.128 2.944 31.576C2.93333 32.0133 2.97067 32.44 3.056 32.856C3.152 33.272 3.312 33.64 3.536 33.96C3.70667 34.216 3.91467 34.424 4.16 34.584C4.416 34.744 4.688 34.856 4.976 34.92C5.264 34.984 5.552 34.9947 5.84 34.952C6.13867 34.9093 6.42667 34.8133 6.704 34.664C6.78933 34.6213 6.88 34.5627 6.976 34.488C7.08267 34.4027 7.18933 34.3173 7.296 34.232C7.40267 34.1467 7.50933 34.0667 7.616 33.992C7.73333 33.9173 7.856 33.864 7.984 33.832C8.176 33.768 8.384 33.7733 8.608 33.848C8.84267 33.9227 9.01867 34.0773 9.136 34.312ZM12.5946 29.768C12.9466 29.5973 13.3146 29.4747 13.6986 29.4C14.0826 29.3253 14.4613 29.3093 14.8346 29.352C15.2186 29.3947 15.5866 29.496 15.9386 29.656C16.3013 29.816 16.632 30.04 16.9306 30.328C17.176 30.5733 17.3893 30.872 17.5706 31.224C17.752 31.5653 17.8853 31.9013 17.9706 32.232C18.152 32.8187 18.1786 33.4107 18.0506 34.008C17.9226 34.6053 17.704 35.16 17.3946 35.672C17.2453 35.9067 17.0586 36.12 16.8346 36.312C16.6213 36.4933 16.392 36.6427 16.1466 36.76C15.8266 36.9093 15.48 37.0107 15.1066 37.064C14.7333 37.128 14.3706 37.144 14.0186 37.112C13.3786 37.08 12.8133 36.92 12.3226 36.632C11.8426 36.344 11.4533 35.976 11.1546 35.528C10.8666 35.08 10.6746 34.5733 10.5786 34.008C10.4933 33.432 10.5306 32.8453 10.6906 32.248C10.8613 31.608 11.1066 31.0907 11.4266 30.696C11.7573 30.2907 12.1466 29.9813 12.5946 29.768ZM13.0746 31.912C12.9146 32.0613 12.792 32.248 12.7066 32.472C12.6213 32.696 12.568 32.9307 12.5466 33.176C12.5253 33.4107 12.5413 33.6507 12.5946 33.896C12.6586 34.1307 12.7546 34.344 12.8826 34.536C12.9893 34.696 13.1813 34.8293 13.4586 34.936C13.736 35.0427 14.024 35.1067 14.3226 35.128C14.664 35.1493 14.9626 35.0587 15.2186 34.856C15.4746 34.6427 15.6666 34.3813 15.7946 34.072C15.9333 33.7627 15.9973 33.4267 15.9866 33.064C15.976 32.7013 15.88 32.3707 15.6986 32.072C15.5706 31.8587 15.3893 31.704 15.1546 31.608C14.9306 31.5013 14.6906 31.448 14.4346 31.448C14.1893 31.4373 13.944 31.4747 13.6986 31.56C13.4533 31.6347 13.2453 31.752 13.0746 31.912ZM21.7055 35.72C21.6948 35.7733 21.6842 35.8267 21.6735 35.88C21.6735 35.9227 21.6735 35.9707 21.6735 36.024L21.5775 36.36C21.5562 36.4027 21.5402 36.4293 21.5295 36.44L21.4815 36.536C21.4282 36.6533 21.3322 36.7493 21.1935 36.824C20.9375 36.952 20.6655 36.984 20.3775 36.92C20.1962 36.8987 20.0522 36.8453 19.9455 36.76C19.8388 36.6853 19.7642 36.5947 19.7215 36.488C19.6788 36.3813 19.6468 36.2747 19.6255 36.168C19.5935 36.0613 19.5775 35.9653 19.5775 35.88V26.92C19.5775 26.8453 19.5775 26.7813 19.5775 26.728C19.5882 26.664 19.5988 26.6053 19.6095 26.552C19.6202 26.4773 19.6308 26.4133 19.6415 26.36C19.6628 26.3067 19.6842 26.248 19.7055 26.184C19.7375 26.0773 19.7962 25.992 19.8815 25.928C20.0095 25.832 20.1322 25.7787 20.2495 25.768C20.3242 25.7467 20.3935 25.736 20.4575 25.736C20.5215 25.7253 20.5962 25.72 20.6815 25.72C20.8308 25.72 21.0015 25.7627 21.1935 25.848C21.3428 25.9333 21.4495 26.0507 21.5135 26.2C21.6202 26.4133 21.6735 26.6107 21.6735 26.792C21.6842 26.8987 21.6895 27.0587 21.6895 27.272C21.7002 27.4853 21.7055 27.6453 21.7055 27.752V27.816C21.7268 28.1573 21.7375 28.488 21.7375 28.808C21.7375 29.1173 21.7322 29.4587 21.7215 29.832C21.7215 30.1947 21.7162 30.5467 21.7055 30.888C21.7055 31.2187 21.7055 31.5493 21.7055 31.88V35.24C21.7055 35.2827 21.7055 35.3253 21.7055 35.368C21.7162 35.4 21.7215 35.4373 21.7215 35.48C21.7215 35.5867 21.7162 35.6667 21.7055 35.72ZM28.551 34.808C28.679 34.776 28.807 34.7547 28.935 34.744C29.0737 34.7333 29.1963 34.7493 29.303 34.792C29.4203 34.8347 29.5163 34.9093 29.591 35.016C29.6657 35.112 29.703 35.2507 29.703 35.432C29.703 35.56 29.671 35.6827 29.607 35.8C29.543 35.9173 29.463 36.024 29.367 36.12C29.271 36.216 29.1643 36.3013 29.047 36.376C28.9297 36.44 28.8177 36.4933 28.711 36.536C28.4017 36.6747 28.0443 36.7813 27.639 36.856C27.2443 36.9307 26.8337 36.9573 26.407 36.936C25.831 36.9147 25.2763 36.8027 24.743 36.6C24.2203 36.3867 23.8097 36.04 23.511 35.56C23.2337 35.0907 23.0683 34.568 23.015 33.992C22.9617 33.416 22.9883 32.872 23.095 32.36C23.2123 31.7413 23.4097 31.24 23.687 30.856C23.975 30.4613 24.3163 30.1467 24.711 29.912C25.191 29.6347 25.7297 29.4907 26.327 29.48C26.9243 29.4693 27.495 29.5867 28.039 29.832C28.4017 29.992 28.727 30.2107 29.015 30.488C29.303 30.7547 29.5217 31.08 29.671 31.464C29.7137 31.56 29.7457 31.6773 29.767 31.816C29.799 31.9547 29.8203 32.104 29.831 32.264C29.8417 32.4133 29.8417 32.5627 29.831 32.712C29.8203 32.8613 29.7937 32.9947 29.751 33.112C29.687 33.304 29.607 33.4533 29.511 33.56C29.415 33.6667 29.2923 33.7467 29.143 33.8C28.9937 33.8533 28.8123 33.8907 28.599 33.912C28.3963 33.9227 28.151 33.9333 27.863 33.944C27.607 33.9547 27.367 33.96 27.143 33.96C26.919 33.96 26.6897 33.96 26.455 33.96C26.2203 33.9493 25.975 33.944 25.719 33.944C25.4737 33.9333 25.1963 33.9227 24.887 33.912C24.855 34.1253 24.8817 34.312 24.967 34.472C25.063 34.6213 25.191 34.7493 25.351 34.856C25.511 34.952 25.6923 35.0267 25.895 35.08C26.0977 35.1333 26.295 35.1653 26.487 35.176C26.8497 35.1973 27.1963 35.1707 27.527 35.096C27.8577 35.0107 28.199 34.9147 28.551 34.808ZM27.863 31.704C27.6603 31.4693 27.447 31.2987 27.223 31.192C27.0523 31.1173 26.871 31.0853 26.679 31.096C26.4977 31.096 26.3217 31.1227 26.151 31.176C25.8417 31.2507 25.5803 31.4107 25.367 31.656C25.3457 31.6773 25.3083 31.7307 25.255 31.816C25.2017 31.8907 25.1483 31.9707 25.095 32.056C25.0523 32.1413 25.0203 32.2213 24.999 32.296C24.9777 32.3707 24.9883 32.408 25.031 32.408H28.167C28.1563 32.2587 28.1297 32.136 28.087 32.04C28.0443 31.9333 27.9697 31.8213 27.863 31.704ZM37.3158 29.944C37.4011 30.1467 37.4064 30.3707 37.3318 30.616C37.2678 30.8613 37.1451 31.0213 36.9638 31.096C36.8678 31.1387 36.7398 31.176 36.5798 31.208C36.4198 31.2293 36.2438 31.2507 36.0518 31.272C35.8704 31.2933 35.6891 31.3093 35.5078 31.32C35.3264 31.3307 35.1718 31.336 35.0438 31.336C35.0544 31.656 35.0651 31.9867 35.0758 32.328C35.0864 32.6587 35.0971 32.984 35.1078 33.304C35.1184 33.624 35.1238 33.9333 35.1238 34.232C35.1238 34.52 35.1184 34.7813 35.1078 35.016C35.1078 35.176 35.1078 35.3627 35.1078 35.576C35.1078 35.7787 35.0918 35.976 35.0598 36.168C35.0384 36.36 35.0011 36.5307 34.9478 36.68C34.8944 36.8187 34.8144 36.9093 34.7078 36.952C34.3771 37.0907 34.0731 37.128 33.7958 37.064C33.5291 37.0107 33.3371 36.8987 33.2198 36.728C33.1344 36.5893 33.0704 36.4293 33.0278 36.248C32.9851 36.056 32.9531 35.864 32.9318 35.672C32.9211 35.4693 32.9158 35.2773 32.9158 35.096C32.9264 34.904 32.9318 34.7387 32.9318 34.6C32.9424 34.152 32.9478 33.6453 32.9478 33.08C32.9584 32.504 32.9638 31.928 32.9638 31.352H32.7238C32.5958 31.352 32.4304 31.352 32.2278 31.352C32.0358 31.3413 31.8384 31.3253 31.6358 31.304C31.4438 31.272 31.2624 31.2347 31.0918 31.192C30.9211 31.1387 30.7984 31.064 30.7238 30.968C30.6064 30.8293 30.5318 30.68 30.4998 30.52C30.4784 30.36 30.4891 30.2107 30.5318 30.072C30.5851 29.9227 30.6651 29.7947 30.7718 29.688C30.8784 29.5707 31.0011 29.496 31.1398 29.464C31.3318 29.4107 31.6038 29.384 31.9557 29.384C32.3078 29.3733 32.6384 29.3733 32.9478 29.384C32.9371 29.2773 32.9318 29.176 32.9318 29.08C32.9318 28.9733 32.9264 28.872 32.9158 28.776C32.9051 28.648 32.8998 28.488 32.8998 28.296C32.8998 28.0933 32.9104 27.896 32.9318 27.704C32.9638 27.5013 33.0118 27.3147 33.0758 27.144C33.1398 26.9627 33.2304 26.824 33.3478 26.728C33.5078 26.6 33.6678 26.5307 33.8278 26.52C33.9984 26.4987 34.1531 26.52 34.2918 26.584C34.4411 26.648 34.5638 26.744 34.6598 26.872C34.7664 26.9893 34.8411 27.1227 34.8838 27.272C34.9158 27.4 34.9424 27.5547 34.9638 27.736C34.9851 27.9067 34.9958 28.088 34.9958 28.28C35.0064 28.472 35.0118 28.664 35.0118 28.856C35.0118 29.048 35.0118 29.224 35.0118 29.384H35.1718C35.3318 29.384 35.5184 29.3787 35.7318 29.368C35.9451 29.3573 36.1531 29.3627 36.3558 29.384C36.5691 29.4053 36.7611 29.4587 36.9318 29.544C37.1024 29.6187 37.2304 29.752 37.3158 29.944ZM39.8558 30.264C40.1758 30.104 40.5118 29.992 40.8638 29.928C41.2158 29.8533 41.5624 29.8373 41.9038 29.88C42.2558 29.912 42.5918 30.0027 42.9118 30.152C43.2318 30.2907 43.5304 30.4933 43.8078 30.76C44.0851 31.0373 44.2984 31.3413 44.4478 31.672C44.5971 32.0027 44.7038 32.3707 44.7678 32.776C44.8104 33.0533 44.8798 33.3093 44.9758 33.544C45.0718 33.7787 45.1731 34.0133 45.2798 34.248C45.3971 34.4827 45.5038 34.7173 45.5998 34.952C45.7064 35.1867 45.7918 35.432 45.8558 35.688C45.9091 35.9333 45.8877 36.1733 45.7917 36.408C45.7064 36.632 45.5251 36.7707 45.2478 36.824C45.0878 36.856 44.9331 36.8453 44.7838 36.792C44.6451 36.728 44.5171 36.6427 44.3998 36.536C44.2824 36.4187 44.1758 36.296 44.0798 36.168C43.9944 36.0293 43.9144 35.9013 43.8398 35.784C43.5944 36.104 43.3278 36.3547 43.0398 36.536C42.7518 36.7067 42.4051 36.8187 41.9998 36.872C41.6584 36.9147 41.3331 36.9253 41.0238 36.904C40.7144 36.8827 40.3838 36.824 40.0318 36.728C39.5731 36.6107 39.1944 36.408 38.8958 36.12C38.6078 35.8213 38.3838 35.48 38.2238 35.096C38.0744 34.7013 37.9944 34.28 37.9838 33.832C37.9731 33.384 38.0264 32.9413 38.1438 32.504C38.2931 31.928 38.5171 31.4587 38.8158 31.096C39.1144 30.7333 39.4611 30.456 39.8558 30.264ZM40.2558 32.136C40.1064 32.2853 39.9891 32.4613 39.9038 32.664C39.8184 32.8667 39.7651 33.08 39.7438 33.304C39.7331 33.528 39.7544 33.752 39.8078 33.976C39.8611 34.2 39.9464 34.3973 40.0638 34.568C40.1704 34.7173 40.3518 34.8453 40.6078 34.952C40.8638 35.048 41.1304 35.1067 41.4078 35.128C41.7278 35.1493 42.0051 35.064 42.2398 34.872C42.4851 34.68 42.6664 34.44 42.7838 34.152C42.9118 33.8533 42.9704 33.5387 42.9598 33.208C42.9491 32.8667 42.8584 32.5573 42.6878 32.28C42.5598 32.0773 42.3891 31.928 42.1758 31.832C41.9731 31.736 41.7544 31.688 41.5198 31.688C41.2851 31.6773 41.0504 31.7147 40.8158 31.8C40.5918 31.8747 40.4051 31.9867 40.2558 32.136ZM51.0109 34.184C50.8082 34.056 50.5789 33.9547 50.3229 33.88C50.0775 33.8053 49.8215 33.736 49.5549 33.672C49.2989 33.608 49.0482 33.5387 48.8029 33.464C48.5575 33.3787 48.3335 33.2613 48.1309 33.112C47.6935 32.7813 47.4375 32.376 47.3629 31.896C47.2989 31.4053 47.4055 30.9147 47.6829 30.424C47.8322 30.168 48.0295 29.96 48.2749 29.8C48.5202 29.6293 48.7869 29.5013 49.0749 29.416C49.3735 29.32 49.6775 29.2667 49.9869 29.256C50.2962 29.2453 50.5895 29.2613 50.8669 29.304C51.0482 29.336 51.2402 29.384 51.4429 29.448C51.6455 29.5013 51.8322 29.576 52.0029 29.672C52.1842 29.768 52.3442 29.8907 52.4829 30.04C52.6322 30.1787 52.7389 30.3547 52.8029 30.568C52.8455 30.7067 52.8509 30.84 52.8189 30.968C52.7975 31.096 52.7442 31.2027 52.6589 31.288C52.5842 31.3733 52.4829 31.4373 52.3549 31.48C52.2375 31.5227 52.1095 31.5333 51.9709 31.512C51.8109 31.48 51.6615 31.432 51.5229 31.368C51.3842 31.304 51.2455 31.2347 51.1069 31.16C50.9682 31.0853 50.8242 31.0213 50.6749 30.968C50.5362 30.9147 50.3869 30.888 50.2269 30.888C49.9815 30.8773 49.7789 30.92 49.6189 31.016C49.4589 31.112 49.3469 31.2293 49.2829 31.368C49.2295 31.5067 49.2349 31.656 49.2989 31.816C49.3735 31.976 49.5229 32.1147 49.7469 32.232C49.9495 32.3387 50.1735 32.424 50.4189 32.488C50.6642 32.552 50.9042 32.616 51.1389 32.68C51.3842 32.744 51.6189 32.8187 51.8429 32.904C52.0775 32.9893 52.2855 33.1067 52.4669 33.256C52.8189 33.544 53.0322 33.88 53.1069 34.264C53.1922 34.648 53.1709 35.0267 53.0429 35.4C52.9149 35.7733 52.6909 36.104 52.3709 36.392C52.0615 36.68 51.6935 36.872 51.2669 36.968C50.9575 37.032 50.6215 37.064 50.2589 37.064C49.9069 37.064 49.5549 37.0267 49.2029 36.952C48.8615 36.8773 48.5309 36.76 48.2109 36.6C47.9015 36.44 47.6402 36.2373 47.4269 35.992C47.2775 35.8213 47.1975 35.6293 47.1869 35.416C47.1869 35.192 47.2295 35 47.3149 34.84C47.4109 34.6693 47.5442 34.552 47.7149 34.488C47.8855 34.424 48.0775 34.4613 48.2909 34.6C48.4615 34.7173 48.6642 34.8347 48.8989 34.952C49.1335 35.0587 49.3682 35.144 49.6029 35.208C49.8375 35.272 50.0615 35.304 50.2749 35.304C50.4989 35.304 50.6909 35.256 50.8509 35.16C51.0855 35.0107 51.2082 34.84 51.2189 34.648C51.2295 34.4453 51.1602 34.2907 51.0109 34.184Z" fill="#D9D9D9"/>
<path d="M37 6C37 5.20435 36.6839 4.44129 36.1213 3.87868C35.5587 3.31607 34.7956 3 34 3H22C21.396 3.00358 20.8071 3.1894 20.3105 3.53315C19.8138 3.8769 19.4325 4.36257 19.2163 4.92661C19.0002 5.49065 18.9594 6.10679 19.0992 6.6944C19.2391 7.28202 19.553 7.81374 20 8.22V18C20 18.7956 20.3161 19.5587 20.8787 20.1213C21.4413 20.6839 22.2043 21 23 21H33C33.7956 21 34.5587 20.6839 35.1213 20.1213C35.6839 19.5587 36 18.7956 36 18V8.22C36.3126 7.94042 36.5631 7.59839 36.7353 7.21601C36.9076 6.83363 36.9977 6.41938 37 6V6ZM22 5H34C34.2652 5 34.5196 5.10536 34.7071 5.29289C34.8946 5.48043 35 5.73478 35 6C35 6.26522 34.8946 6.51957 34.7071 6.70711C34.5196 6.89464 34.2652 7 34 7H22C21.7348 7 21.4804 6.89464 21.2929 6.70711C21.1054 6.51957 21 6.26522 21 6C21 5.73478 21.1054 5.48043 21.2929 5.29289C21.4804 5.10536 21.7348 5 22 5V5ZM34 18C34 18.2652 33.8946 18.5196 33.7071 18.7071C33.5196 18.8946 33.2652 19 33 19H23C22.7348 19 22.4804 18.8946 22.2929 18.7071C22.1054 18.5196 22 18.2652 22 18V9H34V18Z" fill="white"/>
<path d="M30.13 12H25.87C25.3895 12 25 12.3895 25 12.87V13.13C25 13.6105 25.3895 14 25.87 14H30.13C30.6105 14 31 13.6105 31 13.13V12.87C31 12.3895 30.6105 12 30.13 12Z" fill="white"/>
</svg>
