<svg width="24" height="24" viewBox="0 0 24 24" fill="none" xmlns="http://www.w3.org/2000/svg">
<mask id="mask0_604_463" style="mask-type:luminance" maskUnits="userSpaceOnUse" x="0" y="0" width="24" height="24">
<path d="M24 0H0V24H24V0Z" fill="white"/>
</mask>
<g mask="url(#mask0_604_463)">
<path d="M7 6C7.2652 6 7.5196 5.89464 7.7071 5.70711C7.8946 5.51957 8 5.26522 8 5C8 4.73478 7.8946 4.48043 7.7071 4.29289C7.5196 4.10536 7.2652 4 7 4H5C4.7348 4 4.4804 4.10536 4.2929 4.29289C4.1054 4.48043 4 4.73478 4 5V19C4 19.2652 4.1054 19.5196 4.2929 19.7071C4.4804 19.8946 4.7348 20 5 20H7C7.2652 20 7.5196 19.8946 7.7071 19.7071C7.8946 19.5196 8 19.2652 8 19C8 18.7348 7.8946 18.4804 7.7071 18.2929C7.5196 18.1054 7.2652 18 7 18H6V6H7Z" fill="white"/>
<path d="M20.82 11.4204L18 7.42044C17.8471 7.20485 17.615 7.05858 17.3545 7.01361C17.0941 6.96864 16.8264 7.02862 16.61 7.18044C16.5018 7.25623 16.4098 7.35268 16.3391 7.46424C16.2684 7.57581 16.2206 7.70026 16.1982 7.83042C16.1759 7.96059 16.1796 8.09388 16.2091 8.22261C16.2386 8.35134 16.2933 8.47296 16.37 8.58044L18.09 11.0004H10C9.7348 11.0004 9.4804 11.1058 9.2929 11.2933C9.1054 11.4809 9 11.7352 9 12.0004C9 12.2657 9.1054 12.52 9.2929 12.7075C9.4804 12.8951 9.7348 13.0004 10 13.0004H18L16.2 15.4004C16.1212 15.5055 16.0639 15.625 16.0313 15.7523C15.9987 15.8795 15.9915 16.0119 16.01 16.1419C16.0286 16.2719 16.0726 16.3969 16.1395 16.5099C16.2064 16.6229 16.2949 16.7216 16.4 16.8004C16.5731 16.9303 16.7836 17.0004 17 17.0004C17.1552 17.0004 17.3084 16.9643 17.4472 16.8949C17.5861 16.8254 17.7069 16.7246 17.8 16.6004L20.8 12.6004C20.9281 12.4313 20.999 12.2258 21.0026 12.0137C21.0062 11.8016 20.9423 11.5938 20.82 11.4204Z" fill="white"/>
</g>
</svg>
