<svg width="31" height="42" viewBox="0 0 31 42" fill="none" xmlns="http://www.w3.org/2000/svg">
<path d="M5.232 34.232C5.41333 34.2853 5.53067 34.3867 5.584 34.536C5.63733 34.6747 5.65333 34.824 5.632 34.984C5.568 35.3147 5.38667 35.5173 5.088 35.592C4.91733 35.6347 4.74133 35.656 4.56 35.656C4.38933 35.656 4.21333 35.6613 4.032 35.672V39.368C4.032 39.624 4.016 39.8853 3.984 40.152C3.984 40.248 3.95733 40.3493 3.904 40.456C3.88267 40.5093 3.86667 40.5413 3.856 40.552C3.856 40.5733 3.84533 40.6053 3.824 40.648C3.76 40.7653 3.67467 40.8613 3.568 40.936C3.33333 41.064 3.08267 41.096 2.816 41.032C2.656 41 2.53333 40.9467 2.448 40.872C2.352 40.7973 2.28267 40.7067 2.24 40.6C2.21867 40.5467 2.20267 40.4933 2.192 40.44C2.18133 40.3867 2.16533 40.3333 2.144 40.28C2.13333 40.2267 2.12267 40.1787 2.112 40.136C2.112 40.0827 2.112 40.04 2.112 40.008V39.08C2.112 38.5253 2.112 37.9493 2.112 37.352C2.12267 36.7547 2.128 36.1787 2.128 35.624C1.88267 35.6133 1.62667 35.608 1.36 35.608C1.104 35.5973 0.917333 35.5333 0.8 35.416C0.736 35.352 0.693333 35.272 0.672 35.176C0.650667 35.0693 0.64 34.9627 0.64 34.856C0.650667 34.7493 0.672 34.6533 0.704 34.568C0.736 34.472 0.778667 34.4027 0.832 34.36C0.970667 34.232 1.09333 34.1627 1.2 34.152C1.31733 34.1307 1.46133 34.1147 1.632 34.104C1.65333 34.104 1.72267 34.104 1.84 34.104C1.968 34.0933 2.048 34.088 2.08 34.088C2.09067 33.7253 2.10133 33.3627 2.112 33C2.12267 32.6373 2.15467 32.3067 2.208 32.008C2.272 31.6987 2.36267 31.432 2.48 31.208C2.608 30.9733 2.8 30.7973 3.056 30.68C3.36533 30.5413 3.71733 30.456 4.112 30.424C4.50667 30.392 4.864 30.44 5.184 30.568C5.33333 30.6213 5.47733 30.728 5.616 30.888C5.76533 31.048 5.83467 31.224 5.824 31.416C5.81333 31.608 5.776 31.784 5.712 31.944C5.648 32.104 5.50933 32.2107 5.296 32.264C5.2 32.2853 5.09867 32.296 4.992 32.296C4.896 32.2853 4.79467 32.28 4.688 32.28C4.58133 32.28 4.48 32.296 4.384 32.328C4.29867 32.3493 4.224 32.3973 4.16 32.472C4.10667 32.536 4.06933 32.6213 4.048 32.728C4.03733 32.8347 4.02667 32.9467 4.016 33.064C4.00533 33.1813 4 33.2987 4 33.416C4.01067 33.5227 4.016 33.6133 4.016 33.688V34.088C4.26133 34.1093 4.48533 34.1253 4.688 34.136C4.90133 34.1467 5.08267 34.1787 5.232 34.232ZM11.9729 38.808C12.1009 38.776 12.2289 38.7547 12.3569 38.744C12.4955 38.7333 12.6182 38.7493 12.7249 38.792C12.8422 38.8347 12.9382 38.9093 13.0129 39.016C13.0875 39.112 13.1249 39.2507 13.1249 39.432C13.1249 39.56 13.0929 39.6827 13.0289 39.8C12.9649 39.9173 12.8849 40.024 12.7889 40.12C12.6929 40.216 12.5862 40.3013 12.4689 40.376C12.3515 40.44 12.2395 40.4933 12.1329 40.536C11.8235 40.6747 11.4662 40.7813 11.0609 40.856C10.6662 40.9307 10.2555 40.9573 9.82888 40.936C9.25288 40.9147 8.69821 40.8027 8.16488 40.6C7.64221 40.3867 7.23154 40.04 6.93288 39.56C6.65554 39.0907 6.49021 38.568 6.43688 37.992C6.38354 37.416 6.41021 36.872 6.51688 36.36C6.63421 35.7413 6.83154 35.24 7.10888 34.856C7.39688 34.4613 7.73821 34.1467 8.13288 33.912C8.61288 33.6347 9.15154 33.4907 9.74888 33.48C10.3462 33.4693 10.9169 33.5867 11.4609 33.832C11.8235 33.992 12.1489 34.2107 12.4369 34.488C12.7249 34.7547 12.9435 35.08 13.0929 35.464C13.1355 35.56 13.1675 35.6773 13.1889 35.816C13.2209 35.9547 13.2422 36.104 13.2529 36.264C13.2635 36.4133 13.2635 36.5627 13.2529 36.712C13.2422 36.8613 13.2155 36.9947 13.1729 37.112C13.1089 37.304 13.0289 37.4533 12.9329 37.56C12.8369 37.6667 12.7142 37.7467 12.5649 37.8C12.4155 37.8533 12.2342 37.8907 12.0209 37.912C11.8182 37.9227 11.5729 37.9333 11.2849 37.944C11.0289 37.9547 10.7889 37.96 10.5649 37.96C10.3409 37.96 10.1115 37.96 9.87688 37.96C9.64221 37.9493 9.39688 37.944 9.14088 37.944C8.89554 37.9333 8.61821 37.9227 8.30888 37.912C8.27688 38.1253 8.30354 38.312 8.38888 38.472C8.48488 38.6213 8.61288 38.7493 8.77288 38.856C8.93288 38.952 9.11421 39.0267 9.31688 39.08C9.51954 39.1333 9.71688 39.1653 9.90887 39.176C10.2715 39.1973 10.6182 39.1707 10.9489 39.096C11.2795 39.0107 11.6209 38.9147 11.9729 38.808ZM11.2849 35.704C11.0822 35.4693 10.8689 35.2987 10.6449 35.192C10.4742 35.1173 10.2929 35.0853 10.1009 35.096C9.91954 35.096 9.74354 35.1227 9.57288 35.176C9.26354 35.2507 9.00221 35.4107 8.78888 35.656C8.76754 35.6773 8.73021 35.7307 8.67688 35.816C8.62354 35.8907 8.57021 35.9707 8.51688 36.056C8.47421 36.1413 8.44221 36.2213 8.42088 36.296C8.39954 36.3707 8.41021 36.408 8.45288 36.408H11.5889C11.5782 36.2587 11.5515 36.136 11.5089 36.04C11.4662 35.9333 11.3915 35.8213 11.2849 35.704ZM20.0823 38.808C20.2103 38.776 20.3383 38.7547 20.4663 38.744C20.6049 38.7333 20.7276 38.7493 20.8343 38.792C20.9516 38.8347 21.0476 38.9093 21.1223 39.016C21.1969 39.112 21.2343 39.2507 21.2343 39.432C21.2343 39.56 21.2023 39.6827 21.1383 39.8C21.0743 39.9173 20.9943 40.024 20.8983 40.12C20.8023 40.216 20.6956 40.3013 20.5783 40.376C20.4609 40.44 20.3489 40.4933 20.2423 40.536C19.9329 40.6747 19.5756 40.7813 19.1703 40.856C18.7756 40.9307 18.3649 40.9573 17.9383 40.936C17.3623 40.9147 16.8076 40.8027 16.2743 40.6C15.7516 40.3867 15.3409 40.04 15.0423 39.56C14.7649 39.0907 14.5996 38.568 14.5463 37.992C14.4929 37.416 14.5196 36.872 14.6263 36.36C14.7436 35.7413 14.9409 35.24 15.2183 34.856C15.5063 34.4613 15.8476 34.1467 16.2423 33.912C16.7223 33.6347 17.2609 33.4907 17.8583 33.48C18.4556 33.4693 19.0263 33.5867 19.5703 33.832C19.9329 33.992 20.2583 34.2107 20.5463 34.488C20.8343 34.7547 21.0529 35.08 21.2023 35.464C21.2449 35.56 21.2769 35.6773 21.2983 35.816C21.3303 35.9547 21.3516 36.104 21.3623 36.264C21.3729 36.4133 21.3729 36.5627 21.3623 36.712C21.3516 36.8613 21.3249 36.9947 21.2823 37.112C21.2183 37.304 21.1383 37.4533 21.0423 37.56C20.9463 37.6667 20.8236 37.7467 20.6743 37.8C20.5249 37.8533 20.3436 37.8907 20.1303 37.912C19.9276 37.9227 19.6823 37.9333 19.3943 37.944C19.1383 37.9547 18.8983 37.96 18.6743 37.96C18.4503 37.96 18.2209 37.96 17.9863 37.96C17.7516 37.9493 17.5063 37.944 17.2503 37.944C17.0049 37.9333 16.7276 37.9227 16.4183 37.912C16.3863 38.1253 16.4129 38.312 16.4983 38.472C16.5943 38.6213 16.7223 38.7493 16.8823 38.856C17.0423 38.952 17.2236 39.0267 17.4263 39.08C17.6289 39.1333 17.8263 39.1653 18.0182 39.176C18.3809 39.1973 18.7276 39.1707 19.0583 39.096C19.3889 39.0107 19.7303 38.9147 20.0823 38.808ZM19.3943 35.704C19.1916 35.4693 18.9783 35.2987 18.7543 35.192C18.5836 35.1173 18.4023 35.0853 18.2103 35.096C18.0289 35.096 17.8529 35.1227 17.6823 35.176C17.3729 35.2507 17.1116 35.4107 16.8983 35.656C16.8769 35.6773 16.8396 35.7307 16.7863 35.816C16.7329 35.8907 16.6796 35.9707 16.6263 36.056C16.5836 36.1413 16.5516 36.2213 16.5303 36.296C16.5089 36.3707 16.5196 36.408 16.5623 36.408H19.6983C19.6876 36.2587 19.6609 36.136 19.6183 36.04C19.5756 35.9333 19.5009 35.8213 19.3943 35.704ZM27.6476 29.816C27.8503 29.7627 28.0263 29.7573 28.1756 29.8C28.3356 29.832 28.469 29.9013 28.5756 30.008C28.693 30.1147 28.7783 30.248 28.8316 30.408C28.8956 30.568 28.9276 30.744 28.9276 30.936C28.9383 31.4693 28.9383 31.8853 28.9276 32.184C28.9276 32.4827 28.9276 32.744 28.9276 32.968V37.88C28.9276 38.456 28.9276 38.936 28.9276 39.32C28.9276 39.704 28.9063 40.0187 28.8636 40.264C28.8316 40.4987 28.7676 40.6747 28.6716 40.792C28.5863 40.9093 28.453 40.9893 28.2716 41.032C28.0903 41.0853 27.8503 41.112 27.5516 41.112C27.2636 41.112 26.901 41.112 26.4636 41.112C25.3116 41.112 24.3996 40.84 23.7276 40.296C23.0663 39.752 22.7143 38.888 22.6716 37.704C22.6503 37.192 22.7143 36.7227 22.8636 36.296C23.013 35.8693 23.2316 35.5067 23.5196 35.208C23.8183 34.8987 24.181 34.664 24.6076 34.504C25.045 34.3333 25.541 34.2533 26.0956 34.264H26.9756V31.4C26.9756 31.2293 26.9756 31.064 26.9756 30.904C26.9756 30.7333 26.9916 30.5787 27.0236 30.44C27.0556 30.2907 27.1196 30.1627 27.2156 30.056C27.3116 29.9493 27.4556 29.8693 27.6476 29.816ZM24.8636 38.696C25.0876 39.0053 25.493 39.176 26.0796 39.208C26.197 39.2187 26.309 39.224 26.4156 39.224C26.5223 39.2133 26.6183 39.1973 26.7036 39.176C26.7996 39.1653 26.8903 39.1493 26.9756 39.128V36.168C26.6023 36.104 26.261 36.0667 25.9516 36.056C25.653 36.0347 25.3543 36.1413 25.0556 36.376C24.8956 36.504 24.773 36.6693 24.6876 36.872C24.6023 37.064 24.5543 37.272 24.5436 37.496C24.533 37.7093 24.5543 37.9227 24.6076 38.136C24.661 38.3493 24.7463 38.536 24.8636 38.696Z" fill="#D9D9D9"/>
<path d="M23.62 4.22015C23.5038 4.12618 23.3681 4.05943 23.2227 4.02482C23.0773 3.99021 22.9261 3.98861 22.78 4.02015L15 5.77015L7.22 4.00015C7.07162 3.96664 6.91756 3.96742 6.76953 4.00243C6.6215 4.03745 6.48341 4.10577 6.36577 4.20219C6.24812 4.29862 6.15403 4.42062 6.09065 4.5589C6.02726 4.69717 5.99626 4.84809 6 5.00015V17.2002C5.99435 17.4313 6.06898 17.6573 6.2112 17.8396C6.35341 18.0219 6.55442 18.1494 6.78 18.2002L14.78 20.0002H15.22L23.22 18.2002C23.4456 18.1494 23.6466 18.0219 23.7888 17.8396C23.931 17.6573 24.0056 17.4313 24 17.2002V5.00015C23.9993 4.84995 23.9648 4.70183 23.899 4.56679C23.8332 4.43176 23.7379 4.31328 23.62 4.22015ZM8 6.25015L14 7.60015V17.7502L8 16.4002V6.25015ZM22 16.4002L16 17.7502V7.60015L22 6.25015V16.4002Z" fill="white"/>
</svg>
