<svg width="78" height="78" viewBox="0 0 78 78" fill="none" xmlns="http://www.w3.org/2000/svg">
<path fill-rule="evenodd" clip-rule="evenodd" d="M53.4945 35.5645L70.0969 25.4307L77.535 40.0804C79.332 48.0841 69.4857 51.021 61.5797 50.544L53.4945 35.5645Z" fill="white"/>
<path fill-rule="evenodd" clip-rule="evenodd" d="M49.7213 46.0283L40.9899 61.7791L49.7213 77.7501L49.9373 71.3619H57.915C60.8261 71.6187 64.5984 69.6723 66.0001 66.846L76.2418 47.6804C72.8637 51.0952 68.5199 51.9761 63.5211 51.9761H50.0448L49.7213 46.0283Z" fill="white"/>
<path fill-rule="evenodd" clip-rule="evenodd" d="M30.2116 26.6088L13.4822 16.6972L22.4073 2.94119C28.3845 -2.54828 35.6773 4.82151 39.1057 12.1152L30.2116 26.6088Z" fill="white"/>
<path fill-rule="evenodd" clip-rule="evenodd" d="M40.9977 24.9005L58.7142 25.0555L68.1421 9.50321L62.5708 12.4114L58.6987 5.28486C57.5062 2.56003 54.0099 0.134013 50.9099 0.254291L29.5393 0.408343C34.1002 1.76844 36.9628 5.22068 39.3896 9.68689L45.9306 21.7246L40.9977 24.9005Z" fill="white"/>
<path fill-rule="evenodd" clip-rule="evenodd" d="M0.680226 25.7884L5.86381 29.8381L0.985189 39.1839C-1.45422 43.4944 2.7364 47.6923 5.40647 49.1538C8.03498 50.5926 12.1144 50.7635 15.9261 50.7111L22.7868 39.496L27.9696 42.2995L18.9748 25.6323L0.680226 25.7884Z" fill="white"/>
<path fill-rule="evenodd" clip-rule="evenodd" d="M1.4425 47.4404L12.5715 68.0014C14.8083 70.8573 19.0263 71.5327 23.3963 71.429H35.1356V51.9573L12.8767 51.8013C9.42103 52.0096 4.89813 51.2828 1.4425 47.4404Z" fill="white"/>
</svg>
