<svg width="55" height="38" viewBox="0 0 55 38" fill="none" xmlns="http://www.w3.org/2000/svg">
<path d="M5.12 29.768L6.912 29.784C7.09333 29.752 7.22667 29.7627 7.312 29.816C7.408 29.8693 7.53067 29.9547 7.68 30.072C7.82933 30.1893 7.904 30.3547 7.904 30.568C7.904 30.6747 7.88267 30.7867 7.84 30.904C7.808 31.0213 7.76 31.1067 7.696 31.16C7.61067 31.2453 7.52 31.3093 7.424 31.352C7.328 31.384 7.232 31.4107 7.136 31.432C7.05067 31.4427 6.976 31.448 6.912 31.448C6.85867 31.448 6.82667 31.448 6.816 31.448H5.12V33.304C5.152 33.4853 5.14133 33.672 5.088 33.864C5.03467 34.0453 4.94933 34.2107 4.832 34.36C4.71467 34.5093 4.54933 34.584 4.336 34.584C4.22933 34.584 4.09067 34.568 3.92 34.536C3.74933 34.4933 3.63733 34.44 3.584 34.376C3.49867 34.2907 3.43467 34.184 3.392 34.056C3.36 33.9173 3.33333 33.784 3.312 33.656C3.30133 33.528 3.296 33.4213 3.296 33.336C3.296 33.24 3.296 33.1867 3.296 33.176L3.28 31.464H1.936C1.81867 31.464 1.71733 31.4693 1.632 31.48C1.55733 31.48 1.48267 31.4747 1.408 31.464C1.344 31.4427 1.28 31.416 1.216 31.384C1.152 31.352 1.07733 31.2987 0.992 31.224C0.768 31.064 0.656 30.8667 0.656 30.632C0.656 30.4827 0.698667 30.3387 0.784 30.2C0.88 30.0507 1.01333 29.9493 1.184 29.896C1.29067 29.864 1.376 29.8373 1.44 29.816C1.51467 29.7947 1.57867 29.7787 1.632 29.768C1.696 29.7573 1.76 29.752 1.824 29.752C1.89867 29.7413 1.99467 29.736 2.112 29.736L3.28 29.752V28.52C3.26933 28.2747 3.26933 28.024 3.28 27.768C3.29067 27.5013 3.37067 27.2773 3.52 27.096C3.60533 26.9787 3.72267 26.888 3.872 26.824C4.02133 26.76 4.15467 26.728 4.272 26.728C4.42133 26.728 4.56533 26.7813 4.704 26.888C4.85333 26.984 4.95467 27.1173 5.008 27.288C5.08267 27.512 5.11467 27.7413 5.104 27.976C5.104 28.2107 5.10933 28.4507 5.12 28.696V29.768ZM20.443 26.68C20.8483 27.0533 21.147 27.5013 21.339 28.024C21.531 28.536 21.6057 29.048 21.563 29.56C21.5203 30.0507 21.3657 30.504 21.099 30.92C20.8323 31.3253 20.427 31.6347 19.883 31.848C19.4563 32.0293 19.035 32.1573 18.619 32.232C18.203 32.3067 17.7443 32.3653 17.243 32.408C17.019 32.4293 16.827 32.4453 16.667 32.456C16.5177 32.456 16.3417 32.4613 16.139 32.472C16.0963 32.472 16.0217 32.472 15.915 32.472C15.819 32.472 15.7497 32.4773 15.707 32.488V35.8C15.675 36.0027 15.6323 36.2107 15.579 36.424C15.5363 36.6373 15.4137 36.8027 15.211 36.92C15.0937 36.984 14.9497 37.0213 14.779 37.032C14.6083 37.0427 14.4537 37.0373 14.315 37.016C14.1657 36.9947 14.0377 36.9573 13.931 36.904C13.835 36.84 13.755 36.7333 13.691 36.584C13.6483 36.488 13.6057 36.3813 13.563 36.264C13.531 36.136 13.515 35.9813 13.515 35.8V26.952C13.515 26.8773 13.5203 26.808 13.531 26.744C13.5417 26.68 13.5523 26.616 13.563 26.552C13.5843 26.4987 13.6003 26.44 13.611 26.376C13.6217 26.312 13.6377 26.2533 13.659 26.2C13.6803 26.1467 13.7017 26.0987 13.723 26.056C13.755 26.0133 13.7923 25.976 13.835 25.944C13.8883 25.8907 13.9683 25.8427 14.075 25.8C14.1923 25.7573 14.363 25.736 14.587 25.736H14.619C14.9497 25.7147 15.3177 25.6987 15.723 25.688C16.1283 25.6667 16.4643 25.672 16.731 25.704C16.8803 25.7253 17.019 25.7413 17.147 25.752C17.275 25.752 17.3977 25.7573 17.515 25.768C17.643 25.7787 17.771 25.7893 17.899 25.8C18.027 25.8107 18.155 25.8267 18.283 25.848C18.3897 25.8693 18.4857 25.8853 18.571 25.896C18.667 25.9067 18.763 25.9227 18.859 25.944C18.9443 25.9653 19.035 25.9867 19.131 26.008C19.2377 26.0293 19.3337 26.0667 19.419 26.12C19.643 26.184 19.8297 26.264 19.979 26.36C20.1283 26.456 20.283 26.5627 20.443 26.68ZM19.483 29.32C19.4937 29.064 19.4403 28.84 19.323 28.648C19.2163 28.456 19.0617 28.296 18.859 28.168C18.6563 28.04 18.427 27.9387 18.171 27.864C17.915 27.7893 17.659 27.736 17.403 27.704C17.339 27.704 17.2483 27.704 17.131 27.704C17.0243 27.6933 16.907 27.688 16.779 27.688C16.651 27.6773 16.5283 27.672 16.411 27.672C16.3043 27.6613 16.219 27.656 16.155 27.656C16.1017 27.6453 16.0377 27.64 15.963 27.64C15.8883 27.64 15.803 27.64 15.707 27.64C15.7177 27.9707 15.723 28.2907 15.723 28.6C15.723 28.8987 15.723 29.224 15.723 29.576C15.7123 29.768 15.707 29.96 15.707 30.152C15.707 30.344 15.707 30.5307 15.707 30.712L16.699 30.696C16.955 30.696 17.2377 30.68 17.547 30.648C17.8563 30.616 18.1497 30.552 18.427 30.456C18.7043 30.36 18.939 30.2213 19.131 30.04C19.3337 29.8587 19.451 29.6187 19.483 29.32ZM23.7353 29.768C24.0873 29.5973 24.4553 29.4747 24.8393 29.4C25.2233 29.3253 25.6019 29.3093 25.9753 29.352C26.3593 29.3947 26.7273 29.496 27.0793 29.656C27.4419 29.816 27.7726 30.04 28.0713 30.328C28.3166 30.5733 28.5299 30.872 28.7113 31.224C28.8926 31.5653 29.0259 31.9013 29.1112 32.232C29.2926 32.8187 29.3193 33.4107 29.1913 34.008C29.0633 34.6053 28.8446 35.16 28.5353 35.672C28.3859 35.9067 28.1993 36.12 27.9753 36.312C27.7619 36.4933 27.5326 36.6427 27.2873 36.76C26.9673 36.9093 26.6206 37.0107 26.2473 37.064C25.8739 37.128 25.5113 37.144 25.1593 37.112C24.5193 37.08 23.9539 36.92 23.4633 36.632C22.9833 36.344 22.5939 35.976 22.2953 35.528C22.0073 35.08 21.8153 34.5733 21.7193 34.008C21.6339 33.432 21.6713 32.8453 21.8313 32.248C22.0019 31.608 22.2473 31.0907 22.5673 30.696C22.8979 30.2907 23.2873 29.9813 23.7353 29.768ZM24.2153 31.912C24.0553 32.0613 23.9326 32.248 23.8473 32.472C23.7619 32.696 23.7086 32.9307 23.6873 33.176C23.6659 33.4107 23.6819 33.6507 23.7353 33.896C23.7993 34.1307 23.8953 34.344 24.0233 34.536C24.1299 34.696 24.3219 34.8293 24.5993 34.936C24.8766 35.0427 25.1646 35.1067 25.4633 35.128C25.8046 35.1493 26.1033 35.0587 26.3593 34.856C26.6153 34.6427 26.8073 34.3813 26.9353 34.072C27.0739 33.7627 27.1379 33.4267 27.1273 33.064C27.1166 32.7013 27.0206 32.3707 26.8393 32.072C26.7113 31.8587 26.5299 31.704 26.2953 31.608C26.0713 31.5013 25.8313 31.448 25.5753 31.448C25.3299 31.4373 25.0846 31.4747 24.8393 31.56C24.5939 31.6347 24.3859 31.752 24.2153 31.912ZM34.3703 34.184C34.1676 34.056 33.9383 33.9547 33.6823 33.88C33.4369 33.8053 33.1809 33.736 32.9143 33.672C32.6583 33.608 32.4076 33.5387 32.1623 33.464C31.9169 33.3787 31.6929 33.2613 31.4903 33.112C31.0529 32.7813 30.7969 32.376 30.7223 31.896C30.6583 31.4053 30.7649 30.9147 31.0423 30.424C31.1916 30.168 31.3889 29.96 31.6343 29.8C31.8796 29.6293 32.1463 29.5013 32.4343 29.416C32.7329 29.32 33.0369 29.2667 33.3463 29.256C33.6556 29.2453 33.9489 29.2613 34.2263 29.304C34.4076 29.336 34.5996 29.384 34.8023 29.448C35.0049 29.5013 35.1916 29.576 35.3623 29.672C35.5436 29.768 35.7036 29.8907 35.8423 30.04C35.9916 30.1787 36.0983 30.3547 36.1623 30.568C36.2049 30.7067 36.2103 30.84 36.1783 30.968C36.1569 31.096 36.1036 31.2027 36.0183 31.288C35.9436 31.3733 35.8423 31.4373 35.7143 31.48C35.5969 31.5227 35.4689 31.5333 35.3303 31.512C35.1703 31.48 35.0209 31.432 34.8823 31.368C34.7436 31.304 34.6049 31.2347 34.4663 31.16C34.3276 31.0853 34.1836 31.0213 34.0343 30.968C33.8956 30.9147 33.7463 30.888 33.5863 30.888C33.3409 30.8773 33.1383 30.92 32.9783 31.016C32.8183 31.112 32.7063 31.2293 32.6423 31.368C32.5889 31.5067 32.5943 31.656 32.6583 31.816C32.7329 31.976 32.8823 32.1147 33.1063 32.232C33.3089 32.3387 33.5329 32.424 33.7783 32.488C34.0236 32.552 34.2636 32.616 34.4983 32.68C34.7436 32.744 34.9783 32.8187 35.2023 32.904C35.4369 32.9893 35.6449 33.1067 35.8263 33.256C36.1783 33.544 36.3916 33.88 36.4663 34.264C36.5516 34.648 36.5303 35.0267 36.4023 35.4C36.2743 35.7733 36.0503 36.104 35.7303 36.392C35.4209 36.68 35.0529 36.872 34.6263 36.968C34.3169 37.032 33.9809 37.064 33.6183 37.064C33.2663 37.064 32.9143 37.0267 32.5623 36.952C32.2209 36.8773 31.8903 36.76 31.5703 36.6C31.2609 36.44 30.9996 36.2373 30.7863 35.992C30.6369 35.8213 30.5569 35.6293 30.5463 35.416C30.5463 35.192 30.5889 35 30.6743 34.84C30.7703 34.6693 30.9036 34.552 31.0743 34.488C31.2449 34.424 31.4369 34.4613 31.6503 34.6C31.8209 34.7173 32.0236 34.8347 32.2582 34.952C32.4929 35.0587 32.7276 35.144 32.9623 35.208C33.1969 35.272 33.4209 35.304 33.6343 35.304C33.8583 35.304 34.0503 35.256 34.2103 35.16C34.4449 35.0107 34.5676 34.84 34.5783 34.648C34.5889 34.4453 34.5196 34.2907 34.3703 34.184ZM43.9564 29.944C44.0417 30.1467 44.047 30.3707 43.9724 30.616C43.9084 30.8613 43.7857 31.0213 43.6044 31.096C43.5084 31.1387 43.3804 31.176 43.2204 31.208C43.0604 31.2293 42.8844 31.2507 42.6924 31.272C42.511 31.2933 42.3297 31.3093 42.1484 31.32C41.967 31.3307 41.8124 31.336 41.6844 31.336C41.695 31.656 41.7057 31.9867 41.7164 32.328C41.727 32.6587 41.7377 32.984 41.7484 33.304C41.759 33.624 41.7644 33.9333 41.7644 34.232C41.7644 34.52 41.759 34.7813 41.7484 35.016C41.7484 35.176 41.7484 35.3627 41.7484 35.576C41.7484 35.7787 41.7324 35.976 41.7004 36.168C41.679 36.36 41.6417 36.5307 41.5884 36.68C41.535 36.8187 41.455 36.9093 41.3484 36.952C41.0177 37.0907 40.7137 37.128 40.4364 37.064C40.1697 37.0107 39.9777 36.8987 39.8604 36.728C39.775 36.5893 39.711 36.4293 39.6684 36.248C39.6257 36.056 39.5937 35.864 39.5724 35.672C39.5617 35.4693 39.5564 35.2773 39.5564 35.096C39.567 34.904 39.5724 34.7387 39.5724 34.6C39.583 34.152 39.5884 33.6453 39.5884 33.08C39.599 32.504 39.6044 31.928 39.6044 31.352H39.3644C39.2364 31.352 39.071 31.352 38.8684 31.352C38.6764 31.3413 38.479 31.3253 38.2764 31.304C38.0844 31.272 37.903 31.2347 37.7324 31.192C37.5617 31.1387 37.439 31.064 37.3644 30.968C37.247 30.8293 37.1724 30.68 37.1404 30.52C37.119 30.36 37.1297 30.2107 37.1724 30.072C37.2257 29.9227 37.3057 29.7947 37.4124 29.688C37.519 29.5707 37.6417 29.496 37.7804 29.464C37.9724 29.4107 38.2444 29.384 38.5964 29.384C38.9484 29.3733 39.279 29.3733 39.5884 29.384C39.5777 29.2773 39.5724 29.176 39.5724 29.08C39.5724 28.9733 39.567 28.872 39.5564 28.776C39.5457 28.648 39.5404 28.488 39.5404 28.296C39.5404 28.0933 39.551 27.896 39.5724 27.704C39.6044 27.5013 39.6524 27.3147 39.7164 27.144C39.7804 26.9627 39.871 26.824 39.9884 26.728C40.1484 26.6 40.3084 26.5307 40.4684 26.52C40.639 26.4987 40.7937 26.52 40.9324 26.584C41.0817 26.648 41.2044 26.744 41.3004 26.872C41.407 26.9893 41.4817 27.1227 41.5244 27.272C41.5564 27.4 41.583 27.5547 41.6044 27.736C41.6257 27.9067 41.6364 28.088 41.6364 28.28C41.647 28.472 41.6524 28.664 41.6524 28.856C41.6524 29.048 41.6524 29.224 41.6524 29.384H41.8124C41.9724 29.384 42.159 29.3787 42.3724 29.368C42.5857 29.3573 42.7937 29.3627 42.9964 29.384C43.2097 29.4053 43.4017 29.4587 43.5724 29.544C43.743 29.6187 43.871 29.752 43.9564 29.944Z" fill="black"/>
<path d="M34 6C34 5.20435 33.6839 4.44129 33.1213 3.87868C32.5587 3.31607 31.7956 3 31 3H19C18.396 3.00358 17.8071 3.1894 17.3105 3.53315C16.8138 3.8769 16.4325 4.36257 16.2163 4.92661C16.0002 5.49065 15.9594 6.10679 16.0992 6.6944C16.2391 7.28202 16.553 7.81374 17 8.22V18C17 18.7956 17.3161 19.5587 17.8787 20.1213C18.4413 20.6839 19.2043 21 20 21H30C30.7956 21 31.5587 20.6839 32.1213 20.1213C32.6839 19.5587 33 18.7956 33 18V8.22C33.3126 7.94042 33.5631 7.59839 33.7353 7.21601C33.9076 6.83363 33.9977 6.41938 34 6V6ZM19 5H31C31.2652 5 31.5196 5.10536 31.7071 5.29289C31.8946 5.48043 32 5.73478 32 6C32 6.26522 31.8946 6.51957 31.7071 6.70711C31.5196 6.89464 31.2652 7 31 7H19C18.7348 7 18.4804 6.89464 18.2929 6.70711C18.1054 6.51957 18 6.26522 18 6C18 5.73478 18.1054 5.48043 18.2929 5.29289C18.4804 5.10536 18.7348 5 19 5V5ZM31 18C31 18.2652 30.8946 18.5196 30.7071 18.7071C30.5196 18.8946 30.2652 19 30 19H20C19.7348 19 19.4804 18.8946 19.2929 18.7071C19.1054 18.5196 19 18.2652 19 18V9H31V18Z" fill="black"/>
<path d="M27.13 12H22.87C22.3895 12 22 12.3895 22 12.87V13.13C22 13.6105 22.3895 14 22.87 14H27.13C27.6105 14 28 13.6105 28 13.13V12.87C28 12.3895 27.6105 12 27.13 12Z" fill="black"/>
</svg>
