<svg width="64" height="38" viewBox="0 0 64 38" fill="none" xmlns="http://www.w3.org/2000/svg">
<path d="M10.096 26.44C10.1493 26.6853 10.1547 26.936 10.112 27.192C10.08 27.4373 10.032 27.6613 9.968 27.864C9.84 28.28 9.69067 28.744 9.52 29.256C9.34933 29.768 9.17867 30.28 9.008 30.792C8.83733 31.304 8.672 31.7893 8.512 32.248C8.352 32.696 8.21867 33.0693 8.112 33.368C8.00533 33.6453 7.89333 33.96 7.776 34.312C7.65867 34.664 7.51467 35.0107 7.344 35.352C7.184 35.6827 6.992 35.9867 6.768 36.264C6.55467 36.5413 6.29333 36.744 5.984 36.872C5.67467 37 5.392 37.032 5.136 36.968C4.88 36.8933 4.65067 36.7653 4.448 36.584C4.24533 36.392 4.05867 36.1573 3.888 35.88C3.728 35.592 3.584 35.2987 3.456 35C3.328 34.7013 3.21067 34.4133 3.104 34.136C2.99733 33.848 2.90133 33.6027 2.816 33.4C2.48533 32.6747 2.18667 31.9067 1.92 31.096C1.65333 30.2853 1.38133 29.512 1.104 28.776C1.02933 28.5627 0.944 28.3067 0.848 28.008C0.752 27.6987 0.688 27.3947 0.656 27.096C0.634667 26.7867 0.672 26.5093 0.768 26.264C0.864 26.008 1.06667 25.832 1.376 25.736C1.44 25.7147 1.504 25.6987 1.568 25.688C1.64267 25.6667 1.712 25.6507 1.776 25.64C1.85067 25.64 1.92 25.6453 1.984 25.656C2.048 25.6667 2.11733 25.6933 2.192 25.736C2.24533 25.7573 2.29867 25.784 2.352 25.816C2.40533 25.8373 2.45333 25.8693 2.496 25.912C2.53867 25.9653 2.576 26.0187 2.608 26.072C2.65067 26.1253 2.69333 26.1787 2.736 26.232C2.768 26.3067 2.79467 26.376 2.816 26.44C2.848 26.4933 2.87467 26.5467 2.896 26.6C2.91733 26.6747 2.944 26.744 2.976 26.808C3.008 26.8613 3.03467 26.9147 3.056 26.968L3.152 27.24L5.456 33.816L7.728 27.256L7.84 26.984C7.86133 26.9307 7.88267 26.8773 7.904 26.824C7.92533 26.76 7.94667 26.6907 7.968 26.616C7.98933 26.5627 8.01067 26.5093 8.032 26.456C8.064 26.392 8.10133 26.328 8.144 26.264C8.176 26.2107 8.208 26.1573 8.24 26.104C8.28267 26.04 8.32533 25.9813 8.368 25.928C8.4 25.8853 8.43733 25.848 8.48 25.816C8.53333 25.784 8.58133 25.7573 8.624 25.736C8.70933 25.6933 8.784 25.6667 8.848 25.656C8.92267 25.6453 8.98667 25.64 9.04 25.64C9.104 25.6507 9.168 25.6667 9.232 25.688C9.30667 25.6987 9.376 25.7147 9.44 25.736C9.64267 25.7893 9.792 25.88 9.888 26.008C9.99467 26.136 10.064 26.28 10.096 26.44ZM15.926 34.808C16.054 34.776 16.182 34.7547 16.31 34.744C16.4487 34.7333 16.5713 34.7493 16.678 34.792C16.7953 34.8347 16.8913 34.9093 16.966 35.016C17.0407 35.112 17.078 35.2507 17.078 35.432C17.078 35.56 17.046 35.6827 16.982 35.8C16.918 35.9173 16.838 36.024 16.742 36.12C16.646 36.216 16.5393 36.3013 16.422 36.376C16.3047 36.44 16.1927 36.4933 16.086 36.536C15.7767 36.6747 15.4193 36.7813 15.014 36.856C14.6193 36.9307 14.2087 36.9573 13.782 36.936C13.206 36.9147 12.6513 36.8027 12.118 36.6C11.5953 36.3867 11.1847 36.04 10.886 35.56C10.6087 35.0907 10.4433 34.568 10.39 33.992C10.3367 33.416 10.3633 32.872 10.47 32.36C10.5873 31.7413 10.7847 31.24 11.062 30.856C11.35 30.4613 11.6913 30.1467 12.086 29.912C12.566 29.6347 13.1047 29.4907 13.702 29.48C14.2993 29.4693 14.87 29.5867 15.414 29.832C15.7767 29.992 16.102 30.2107 16.39 30.488C16.678 30.7547 16.8967 31.08 17.046 31.464C17.0887 31.56 17.1207 31.6773 17.142 31.816C17.174 31.9547 17.1953 32.104 17.206 32.264C17.2167 32.4133 17.2167 32.5627 17.206 32.712C17.1953 32.8613 17.1687 32.9947 17.126 33.112C17.062 33.304 16.982 33.4533 16.886 33.56C16.79 33.6667 16.6673 33.7467 16.518 33.8C16.3687 33.8533 16.1873 33.8907 15.974 33.912C15.7713 33.9227 15.526 33.9333 15.238 33.944C14.982 33.9547 14.742 33.96 14.518 33.96C14.294 33.96 14.0647 33.96 13.83 33.96C13.5953 33.9493 13.35 33.944 13.094 33.944C12.8487 33.9333 12.5713 33.9227 12.262 33.912C12.23 34.1253 12.2567 34.312 12.342 34.472C12.438 34.6213 12.566 34.7493 12.726 34.856C12.886 34.952 13.0673 35.0267 13.27 35.08C13.4727 35.1333 13.67 35.1653 13.862 35.176C14.2247 35.1973 14.5713 35.1707 14.902 35.096C15.2327 35.0107 15.574 34.9147 15.926 34.808ZM15.238 31.704C15.0353 31.4693 14.822 31.2987 14.598 31.192C14.4273 31.1173 14.246 31.0853 14.054 31.096C13.8727 31.096 13.6967 31.1227 13.526 31.176C13.2167 31.2507 12.9553 31.4107 12.742 31.656C12.7207 31.6773 12.6833 31.7307 12.63 31.816C12.5767 31.8907 12.5233 31.9707 12.47 32.056C12.4273 32.1413 12.3953 32.2213 12.374 32.296C12.3527 32.3707 12.3633 32.408 12.406 32.408H15.542C15.5313 32.2587 15.5047 32.136 15.462 32.04C15.4193 31.9333 15.3447 31.8213 15.238 31.704ZM18.5154 31.336C18.5154 31.208 18.5154 31.064 18.5154 30.904C18.5154 30.7333 18.5207 30.5627 18.5314 30.392C18.542 30.2107 18.558 30.04 18.5794 29.88C18.6114 29.7093 18.654 29.56 18.7074 29.432C18.7927 29.24 18.926 29.112 19.1074 29.048C19.2887 28.9733 19.486 28.9413 19.6994 28.952C19.9234 28.952 20.0994 28.9893 20.2274 29.064C20.3554 29.1387 20.4514 29.24 20.5154 29.368C20.5794 29.4853 20.6167 29.624 20.6274 29.784C20.6487 29.9333 20.6594 30.0933 20.6594 30.264C20.7554 30.0933 20.8834 29.9547 21.0434 29.848C21.214 29.7413 21.3847 29.656 21.5554 29.592C21.726 29.528 21.8807 29.4853 22.0194 29.464C22.158 29.432 22.238 29.416 22.2594 29.416C22.526 29.3947 22.766 29.3893 22.9794 29.4C23.2034 29.4107 23.4487 29.4587 23.7154 29.544C23.886 29.608 24.062 29.6987 24.2434 29.816C24.4247 29.9227 24.5847 30.0507 24.7234 30.2C24.862 30.3493 24.9527 30.5147 24.9954 30.696C25.0487 30.8667 25.0274 31.048 24.9314 31.24C24.782 31.5067 24.6167 31.64 24.4354 31.64C24.254 31.6293 24.0567 31.5973 23.8434 31.544C23.726 31.5227 23.5874 31.4747 23.4274 31.4C23.2674 31.3253 23.1287 31.2773 23.0114 31.256C22.6487 31.2027 22.3287 31.2293 22.0514 31.336C21.774 31.4427 21.534 31.5707 21.3314 31.72C21.0967 31.9013 20.894 32.1093 20.7234 32.344V34.648C20.7234 34.936 20.718 35.2347 20.7074 35.544C20.7074 35.8533 20.6647 36.136 20.5794 36.392C20.5047 36.6373 20.3714 36.84 20.1794 37C19.998 37.1493 19.7314 37.2133 19.3794 37.192C19.1874 37.1813 19.0167 37.0907 18.8674 36.92C18.718 36.7387 18.6274 36.5627 18.5954 36.392C18.574 36.232 18.558 36.04 18.5474 35.816C18.5367 35.592 18.526 35.3573 18.5154 35.112C18.5154 34.8667 18.5154 34.6213 18.5154 34.376C18.5154 34.12 18.5154 33.8853 18.5154 33.672V31.336ZM28.3279 30.936C28.3279 31.2347 28.3279 31.5707 28.3279 31.944C28.3385 32.3173 28.3439 32.7067 28.3439 33.112C28.3439 33.5067 28.3439 33.9013 28.3439 34.296C28.3439 34.68 28.3385 35.0373 28.3279 35.368C28.3172 35.528 28.3012 35.704 28.2799 35.896C28.2585 36.0773 28.2159 36.248 28.1519 36.408C28.0879 36.568 27.9865 36.7013 27.8479 36.808C27.7199 36.904 27.5439 36.9467 27.3199 36.936C26.9892 36.9147 26.7492 36.7707 26.5999 36.504C26.4612 36.2373 26.3812 35.864 26.3599 35.384C26.3599 35.1387 26.3545 34.856 26.3439 34.536C26.3439 34.216 26.3385 33.8907 26.3279 33.56C26.3279 33.2293 26.3279 32.9093 26.3279 32.6C26.3279 32.28 26.3279 31.992 26.3279 31.736C26.3279 31.5867 26.3225 31.4053 26.3119 31.192C26.3119 30.9787 26.3172 30.76 26.3279 30.536C26.3385 30.312 26.3652 30.0987 26.4079 29.896C26.4505 29.6827 26.5199 29.5067 26.6159 29.368C26.6905 29.2827 26.7972 29.2187 26.9359 29.176C27.0745 29.1227 27.2185 29.096 27.3679 29.096C27.5279 29.096 27.6772 29.1227 27.8159 29.176C27.9652 29.2293 28.0719 29.304 28.1359 29.4C28.1785 29.464 28.2105 29.5547 28.2319 29.672C28.2532 29.7893 28.2692 29.9227 28.2799 30.072C28.3012 30.2107 28.3119 30.36 28.3119 30.52C28.3225 30.6693 28.3279 30.808 28.3279 30.936ZM27.7199 27.704C27.3892 27.7893 27.1119 27.7573 26.8879 27.608C26.6745 27.448 26.5412 27.2133 26.4879 26.904C26.4452 26.68 26.4612 26.4827 26.5359 26.312C26.6105 26.1413 26.7225 26.0133 26.8719 25.928C27.0212 25.832 27.1919 25.7893 27.3839 25.8C27.5759 25.8107 27.7679 25.8853 27.9599 26.024C28.1412 26.152 28.2692 26.3013 28.3439 26.472C28.4292 26.6427 28.4559 26.808 28.4239 26.968C28.4025 27.128 28.3332 27.2773 28.2159 27.416C28.0985 27.544 27.9332 27.64 27.7199 27.704ZM34.3258 30.232C34.5071 30.2853 34.6244 30.3867 34.6778 30.536C34.7311 30.6747 34.7471 30.824 34.7258 30.984C34.6618 31.3147 34.4804 31.5173 34.1818 31.592C34.0111 31.6347 33.8351 31.656 33.6538 31.656C33.4831 31.656 33.3071 31.6613 33.1258 31.672V35.368C33.1258 35.624 33.1098 35.8853 33.0778 36.152C33.0778 36.248 33.0511 36.3493 32.9978 36.456C32.9764 36.5093 32.9604 36.5413 32.9498 36.552C32.9498 36.5733 32.9391 36.6053 32.9178 36.648C32.8538 36.7653 32.7684 36.8613 32.6618 36.936C32.4271 37.064 32.1764 37.096 31.9098 37.032C31.7498 37 31.6271 36.9467 31.5418 36.872C31.4458 36.7973 31.3764 36.7067 31.3338 36.6C31.3124 36.5467 31.2964 36.4933 31.2858 36.44C31.2751 36.3867 31.2591 36.3333 31.2378 36.28C31.2271 36.2267 31.2164 36.1787 31.2057 36.136C31.2057 36.0827 31.2057 36.04 31.2057 36.008V35.08C31.2057 34.5253 31.2057 33.9493 31.2057 33.352C31.2164 32.7547 31.2218 32.1787 31.2218 31.624C30.9764 31.6133 30.7204 31.608 30.4538 31.608C30.1978 31.5973 30.0111 31.5333 29.8938 31.416C29.8298 31.352 29.7871 31.272 29.7658 31.176C29.7444 31.0693 29.7338 30.9627 29.7338 30.856C29.7444 30.7493 29.7658 30.6533 29.7978 30.568C29.8298 30.472 29.8724 30.4027 29.9258 30.36C30.0644 30.232 30.1871 30.1627 30.2938 30.152C30.4111 30.1307 30.5551 30.1147 30.7258 30.104C30.7471 30.104 30.8164 30.104 30.9338 30.104C31.0618 30.0933 31.1418 30.088 31.1738 30.088C31.1844 29.7253 31.1951 29.3627 31.2057 29C31.2164 28.6373 31.2484 28.3067 31.3018 28.008C31.3658 27.6987 31.4564 27.432 31.5738 27.208C31.7018 26.9733 31.8938 26.7973 32.1498 26.68C32.4591 26.5413 32.8111 26.456 33.2057 26.424C33.6004 26.392 33.9578 26.44 34.2778 26.568C34.4271 26.6213 34.5711 26.728 34.7098 26.888C34.8591 27.048 34.9284 27.224 34.9178 27.416C34.9071 27.608 34.8698 27.784 34.8058 27.944C34.7418 28.104 34.6031 28.2107 34.3898 28.264C34.2938 28.2853 34.1924 28.296 34.0858 28.296C33.9898 28.2853 33.8884 28.28 33.7818 28.28C33.6751 28.28 33.5738 28.296 33.4778 28.328C33.3924 28.3493 33.3178 28.3973 33.2538 28.472C33.2004 28.536 33.1631 28.6213 33.1418 28.728C33.1311 28.8347 33.1204 28.9467 33.1098 29.064C33.0991 29.1813 33.0938 29.2987 33.0938 29.416C33.1044 29.5227 33.1098 29.6133 33.1098 29.688V30.088C33.3551 30.1093 33.5791 30.1253 33.7818 30.136C33.9951 30.1467 34.1764 30.1787 34.3258 30.232ZM38.2341 30.936C38.2341 31.2347 38.2341 31.5707 38.2341 31.944C38.2448 32.3173 38.2501 32.7067 38.2501 33.112C38.2501 33.5067 38.2501 33.9013 38.2501 34.296C38.2501 34.68 38.2448 35.0373 38.2341 35.368C38.2235 35.528 38.2075 35.704 38.1861 35.896C38.1648 36.0773 38.1221 36.248 38.0581 36.408C37.9941 36.568 37.8928 36.7013 37.7541 36.808C37.6261 36.904 37.4501 36.9467 37.2261 36.936C36.8955 36.9147 36.6555 36.7707 36.5061 36.504C36.3675 36.2373 36.2875 35.864 36.2661 35.384C36.2661 35.1387 36.2608 34.856 36.2501 34.536C36.2501 34.216 36.2448 33.8907 36.2341 33.56C36.2341 33.2293 36.2341 32.9093 36.2341 32.6C36.2341 32.28 36.2341 31.992 36.2341 31.736C36.2341 31.5867 36.2288 31.4053 36.2181 31.192C36.2181 30.9787 36.2235 30.76 36.2341 30.536C36.2448 30.312 36.2715 30.0987 36.3141 29.896C36.3568 29.6827 36.4261 29.5067 36.5221 29.368C36.5968 29.2827 36.7035 29.2187 36.8421 29.176C36.9808 29.1227 37.1248 29.096 37.2741 29.096C37.4341 29.096 37.5835 29.1227 37.7221 29.176C37.8715 29.2293 37.9781 29.304 38.0421 29.4C38.0848 29.464 38.1168 29.5547 38.1381 29.672C38.1595 29.7893 38.1755 29.9227 38.1861 30.072C38.2075 30.2107 38.2181 30.36 38.2181 30.52C38.2288 30.6693 38.2341 30.808 38.2341 30.936ZM37.6261 27.704C37.2955 27.7893 37.0181 27.7573 36.7941 27.608C36.5808 27.448 36.4475 27.2133 36.3941 26.904C36.3515 26.68 36.3675 26.4827 36.4421 26.312C36.5168 26.1413 36.6288 26.0133 36.7781 25.928C36.9275 25.832 37.0981 25.7893 37.2901 25.8C37.4821 25.8107 37.6741 25.8853 37.8661 26.024C38.0475 26.152 38.1755 26.3013 38.2501 26.472C38.3355 26.6427 38.3621 26.808 38.3301 26.968C38.3088 27.128 38.2395 27.2773 38.1221 27.416C38.0048 27.544 37.8395 27.64 37.6261 27.704ZM45.592 30.84C45.6773 30.9893 45.72 31.1493 45.72 31.32C45.7307 31.4907 45.6933 31.6507 45.608 31.8C45.512 31.992 45.3733 32.1253 45.192 32.2C45.0213 32.264 44.8293 32.2693 44.616 32.216C44.52 32.1947 44.4347 32.1573 44.36 32.104C44.2853 32.0507 44.2053 31.9973 44.12 31.944C44.0453 31.88 43.9547 31.8213 43.848 31.768C43.752 31.7147 43.624 31.6773 43.464 31.656C43.304 31.6347 43.128 31.6347 42.936 31.656C42.7547 31.6773 42.5893 31.72 42.44 31.784C42.2053 31.9013 42.0187 32.0827 41.88 32.328C41.7413 32.5627 41.6507 32.8187 41.608 33.096C41.5653 33.3627 41.5707 33.6347 41.624 33.912C41.688 34.1893 41.8053 34.424 41.976 34.616C42.104 34.7653 42.2693 34.888 42.472 34.984C42.6853 35.08 42.888 35.1387 43.08 35.16C43.2613 35.1813 43.4427 35.1813 43.624 35.16C43.8053 35.128 43.9813 35.0853 44.152 35.032C44.28 34.9787 44.424 34.9093 44.584 34.824C44.744 34.728 44.8987 34.6693 45.048 34.648C45.24 34.648 45.3893 34.7013 45.496 34.808C45.6027 34.904 45.6773 35.0267 45.72 35.176C45.7627 35.3147 45.768 35.464 45.736 35.624C45.7147 35.784 45.656 35.9227 45.56 36.04C45.432 36.2 45.2507 36.3547 45.016 36.504C44.7813 36.6427 44.5573 36.744 44.344 36.808C44.088 36.8933 43.8 36.9413 43.48 36.952C43.1707 36.9627 42.8773 36.952 42.6 36.92C42.472 36.8987 42.3387 36.872 42.2 36.84C42.0613 36.808 41.928 36.7707 41.8 36.728C41.3307 36.5573 40.936 36.3173 40.616 36.008C40.3067 35.688 40.0667 35.3307 39.896 34.936C39.736 34.5413 39.6453 34.12 39.624 33.672C39.6027 33.224 39.656 32.7813 39.784 32.344C39.9013 31.928 40.0453 31.576 40.216 31.288C40.3973 31 40.6053 30.7653 40.84 30.584C41.0853 30.392 41.3573 30.2427 41.656 30.136C41.9547 30.0187 42.2853 29.9173 42.648 29.832C43.0213 29.7573 43.416 29.7573 43.832 29.832C44.248 29.9067 44.6213 30.0453 44.952 30.248C45.208 30.3867 45.4213 30.584 45.592 30.84ZM48.9026 30.264C49.2226 30.104 49.5586 29.992 49.9106 29.928C50.2626 29.8533 50.6093 29.8373 50.9506 29.88C51.3026 29.912 51.6386 30.0027 51.9586 30.152C52.2786 30.2907 52.5773 30.4933 52.8546 30.76C53.132 31.0373 53.3453 31.3413 53.4946 31.672C53.644 32.0027 53.7506 32.3707 53.8146 32.776C53.8573 33.0533 53.9266 33.3093 54.0226 33.544C54.1186 33.7787 54.22 34.0133 54.3266 34.248C54.444 34.4827 54.5506 34.7173 54.6466 34.952C54.7533 35.1867 54.8386 35.432 54.9026 35.688C54.956 35.9333 54.9346 36.1733 54.8386 36.408C54.7533 36.632 54.572 36.7707 54.2946 36.824C54.1346 36.856 53.98 36.8453 53.8306 36.792C53.692 36.728 53.564 36.6427 53.4466 36.536C53.3293 36.4187 53.2226 36.296 53.1266 36.168C53.0413 36.0293 52.9613 35.9013 52.8866 35.784C52.6413 36.104 52.3746 36.3547 52.0866 36.536C51.7986 36.7067 51.452 36.8187 51.0466 36.872C50.7053 36.9147 50.38 36.9253 50.0706 36.904C49.7613 36.8827 49.4306 36.824 49.0786 36.728C48.62 36.6107 48.2413 36.408 47.9426 36.12C47.6546 35.8213 47.4306 35.48 47.2706 35.096C47.1213 34.7013 47.0413 34.28 47.0306 33.832C47.02 33.384 47.0733 32.9413 47.1906 32.504C47.34 31.928 47.564 31.4587 47.8626 31.096C48.1613 30.7333 48.508 30.456 48.9026 30.264ZM49.3026 32.136C49.1533 32.2853 49.036 32.4613 48.9506 32.664C48.8653 32.8667 48.812 33.08 48.7906 33.304C48.78 33.528 48.8013 33.752 48.8546 33.976C48.908 34.2 48.9933 34.3973 49.1106 34.568C49.2173 34.7173 49.3986 34.8453 49.6546 34.952C49.9106 35.048 50.1773 35.1067 50.4546 35.128C50.7746 35.1493 51.052 35.064 51.2866 34.872C51.532 34.68 51.7133 34.44 51.8306 34.152C51.9586 33.8533 52.0173 33.5387 52.0066 33.208C51.996 32.8667 51.9053 32.5573 51.7346 32.28C51.6066 32.0773 51.436 31.928 51.2226 31.832C51.02 31.736 50.8013 31.688 50.5666 31.688C50.332 31.6773 50.0973 31.7147 49.8626 31.8C49.6386 31.8747 49.452 31.9867 49.3026 32.136ZM56.2498 31.336C56.2498 31.208 56.2498 31.064 56.2498 30.904C56.2498 30.7333 56.2551 30.5627 56.2658 30.392C56.2764 30.2107 56.2924 30.04 56.3138 29.88C56.3458 29.7093 56.3884 29.56 56.4418 29.432C56.5271 29.24 56.6604 29.112 56.8418 29.048C57.0231 28.9733 57.2204 28.9413 57.4338 28.952C57.6578 28.952 57.8338 28.9893 57.9618 29.064C58.0898 29.1387 58.1858 29.24 58.2498 29.368C58.3138 29.4853 58.3511 29.624 58.3618 29.784C58.3831 29.9333 58.3938 30.0933 58.3938 30.264C58.4898 30.0933 58.6178 29.9547 58.7778 29.848C58.9484 29.7413 59.1191 29.656 59.2898 29.592C59.4604 29.528 59.6151 29.4853 59.7538 29.464C59.8924 29.432 59.9724 29.416 59.9938 29.416C60.2604 29.3947 60.5004 29.3893 60.7138 29.4C60.9378 29.4107 61.1831 29.4587 61.4498 29.544C61.6204 29.608 61.7964 29.6987 61.9778 29.816C62.1591 29.9227 62.3191 30.0507 62.4578 30.2C62.5964 30.3493 62.6871 30.5147 62.7298 30.696C62.7831 30.8667 62.7618 31.048 62.6658 31.24C62.5164 31.5067 62.3511 31.64 62.1698 31.64C61.9884 31.6293 61.7911 31.5973 61.5778 31.544C61.4604 31.5227 61.3218 31.4747 61.1618 31.4C61.0018 31.3253 60.8631 31.2773 60.7458 31.256C60.3831 31.2027 60.0631 31.2293 59.7858 31.336C59.5084 31.4427 59.2684 31.5707 59.0658 31.72C58.8311 31.9013 58.6284 32.1093 58.4578 32.344V34.648C58.4578 34.936 58.4524 35.2347 58.4418 35.544C58.4418 35.8533 58.3991 36.136 58.3138 36.392C58.2391 36.6373 58.1058 36.84 57.9138 37C57.7324 37.1493 57.4658 37.2133 57.1138 37.192C56.9218 37.1813 56.7511 37.0907 56.6018 36.92C56.4524 36.7387 56.3618 36.5627 56.3298 36.392C56.3084 36.232 56.2924 36.04 56.2818 35.816C56.2711 35.592 56.2604 35.3573 56.2498 35.112C56.2498 34.8667 56.2498 34.6213 56.2498 34.376C56.2498 34.12 56.2498 33.8853 56.2498 33.672V31.336Z" fill="black"/>
<g clip-path="url(#clip0_602_484)">
<path d="M38.5166 4.22015C38.4119 4.12618 38.2895 4.05943 38.1585 4.02482C38.0275 3.99021 37.8911 3.98861 37.7594 4.02015L30.7465 5.77015L23.7335 4.00015C23.5998 3.96664 23.4609 3.96742 23.3275 4.00243C23.194 4.03745 23.0695 4.10577 22.9635 4.20219C22.8575 4.29862 22.7726 4.42062 22.7155 4.5589C22.6584 4.69717 22.6304 4.84809 22.6338 5.00015V17.2002C22.6287 17.4313 22.696 17.6573 22.8242 17.8396C22.9524 18.0219 23.1336 18.1494 23.3369 18.2002L30.5482 20.0002H30.9448L38.1561 18.2002C38.3594 18.1494 38.5406 18.0219 38.6688 17.8396C38.797 17.6573 38.8642 17.4313 38.8592 17.2002V5.00015C38.8585 4.84995 38.8274 4.70183 38.7681 4.56679C38.7088 4.43176 38.6229 4.31328 38.5166 4.22015ZM24.4366 6.25015L29.8451 7.60015V17.7502L24.4366 16.4002V6.25015ZM37.0563 16.4002L31.6479 17.7502V7.60015L37.0563 6.25015V16.4002Z" fill="black"/>
</g>
<defs>
<clipPath id="clip0_602_484">
<rect width="21.6338" height="24" fill="white" transform="translate(19.9296)"/>
</clipPath>
</defs>
</svg>
