<svg width="42" height="43" viewBox="0 0 42 43" fill="none" xmlns="http://www.w3.org/2000/svg">
<path d="M9.77894 31.68C10.1843 32.0533 10.4829 32.5013 10.6749 33.024C10.8669 33.536 10.9416 34.048 10.8989 34.56C10.8563 35.0507 10.7016 35.504 10.4349 35.92C10.1683 36.3253 9.76294 36.6347 9.21894 36.848C8.79227 37.0293 8.37094 37.1573 7.95494 37.232C7.53894 37.3067 7.08027 37.3653 6.57894 37.408C6.35494 37.4293 6.16294 37.4453 6.00294 37.456C5.8536 37.456 5.6776 37.4613 5.47494 37.472C5.43227 37.472 5.3576 37.472 5.25094 37.472C5.15494 37.472 5.0856 37.4773 5.04294 37.488V40.8C5.01094 41.0027 4.96827 41.2107 4.91494 41.424C4.87227 41.6373 4.7496 41.8027 4.54694 41.92C4.4296 41.984 4.2856 42.0213 4.11494 42.032C3.94427 42.0427 3.7896 42.0373 3.65094 42.016C3.5016 41.9947 3.3736 41.9573 3.26694 41.904C3.17094 41.84 3.09094 41.7333 3.02694 41.584C2.98427 41.488 2.9416 41.3813 2.89894 41.264C2.86694 41.136 2.85094 40.9813 2.85094 40.8V31.952C2.85094 31.8773 2.85627 31.808 2.86694 31.744C2.8776 31.68 2.88827 31.616 2.89894 31.552C2.92027 31.4987 2.93627 31.44 2.94694 31.376C2.9576 31.312 2.9736 31.2533 2.99494 31.2C3.01627 31.1467 3.0376 31.0987 3.05894 31.056C3.09094 31.0133 3.12827 30.976 3.17094 30.944C3.22427 30.8907 3.30427 30.8427 3.41094 30.8C3.52827 30.7573 3.69894 30.736 3.92294 30.736H3.95494C4.2856 30.7147 4.6536 30.6987 5.05894 30.688C5.46427 30.6667 5.80027 30.672 6.06694 30.704C6.21627 30.7253 6.35494 30.7413 6.48294 30.752C6.61094 30.752 6.7336 30.7573 6.85094 30.768C6.97894 30.7787 7.10694 30.7893 7.23494 30.8C7.36294 30.8107 7.49094 30.8267 7.61894 30.848C7.7256 30.8693 7.8216 30.8853 7.90694 30.896C8.00294 30.9067 8.09894 30.9227 8.19494 30.944C8.28027 30.9653 8.37094 30.9867 8.46694 31.008C8.5736 31.0293 8.6696 31.0667 8.75494 31.12C8.97894 31.184 9.1656 31.264 9.31494 31.36C9.46427 31.456 9.61894 31.5627 9.77894 31.68ZM8.81894 34.32C8.8296 34.064 8.77627 33.84 8.65894 33.648C8.55227 33.456 8.3976 33.296 8.19494 33.168C7.99227 33.04 7.76294 32.9387 7.50694 32.864C7.25094 32.7893 6.99494 32.736 6.73894 32.704C6.67494 32.704 6.58427 32.704 6.46694 32.704C6.36027 32.6933 6.24294 32.688 6.11494 32.688C5.98694 32.6773 5.86427 32.672 5.74694 32.672C5.64027 32.6613 5.55494 32.656 5.49094 32.656C5.4376 32.6453 5.3736 32.64 5.29894 32.64C5.22427 32.64 5.13894 32.64 5.04294 32.64C5.0536 32.9707 5.05894 33.2907 5.05894 33.6C5.05894 33.8987 5.05894 34.224 5.05894 34.576C5.04827 34.768 5.04294 34.96 5.04294 35.152C5.04294 35.344 5.04294 35.5307 5.04294 35.712L6.03494 35.696C6.29094 35.696 6.5736 35.68 6.88294 35.648C7.19227 35.616 7.4856 35.552 7.76294 35.456C8.04027 35.36 8.27494 35.2213 8.46694 35.04C8.6696 34.8587 8.78694 34.6187 8.81894 34.32ZM16.5432 39.808C16.6712 39.776 16.7992 39.7547 16.9272 39.744C17.0659 39.7333 17.1885 39.7493 17.2952 39.792C17.4125 39.8347 17.5085 39.9093 17.5832 40.016C17.6579 40.112 17.6952 40.2507 17.6952 40.432C17.6952 40.56 17.6632 40.6827 17.5992 40.8C17.5352 40.9173 17.4552 41.024 17.3592 41.12C17.2632 41.216 17.1565 41.3013 17.0392 41.376C16.9219 41.44 16.8099 41.4933 16.7032 41.536C16.3939 41.6747 16.0365 41.7813 15.6312 41.856C15.2365 41.9307 14.8259 41.9573 14.3992 41.936C13.8232 41.9147 13.2685 41.8027 12.7352 41.6C12.2125 41.3867 11.8019 41.04 11.5032 40.56C11.2259 40.0907 11.0605 39.568 11.0072 38.992C10.9539 38.416 10.9805 37.872 11.0872 37.36C11.2045 36.7413 11.4019 36.24 11.6792 35.856C11.9672 35.4613 12.3085 35.1467 12.7032 34.912C13.1832 34.6347 13.7219 34.4907 14.3192 34.48C14.9165 34.4693 15.4872 34.5867 16.0312 34.832C16.3939 34.992 16.7192 35.2107 17.0072 35.488C17.2952 35.7547 17.5139 36.08 17.6632 36.464C17.7059 36.56 17.7379 36.6773 17.7592 36.816C17.7912 36.9547 17.8125 37.104 17.8232 37.264C17.8339 37.4133 17.8339 37.5627 17.8232 37.712C17.8125 37.8613 17.7859 37.9947 17.7432 38.112C17.6792 38.304 17.5992 38.4533 17.5032 38.56C17.4072 38.6667 17.2845 38.7467 17.1352 38.8C16.9859 38.8533 16.8045 38.8907 16.5912 38.912C16.3885 38.9227 16.1432 38.9333 15.8552 38.944C15.5992 38.9547 15.3592 38.96 15.1352 38.96C14.9112 38.96 14.6819 38.96 14.4472 38.96C14.2125 38.9493 13.9672 38.944 13.7112 38.944C13.4659 38.9333 13.1885 38.9227 12.8792 38.912C12.8472 39.1253 12.8739 39.312 12.9592 39.472C13.0552 39.6213 13.1832 39.7493 13.3432 39.856C13.5032 39.952 13.6845 40.0267 13.8872 40.08C14.0899 40.1333 14.2872 40.1653 14.4792 40.176C14.8419 40.1973 15.1885 40.1707 15.5192 40.096C15.8499 40.0107 16.1912 39.9147 16.5432 39.808ZM15.8552 36.704C15.6525 36.4693 15.4392 36.2987 15.2152 36.192C15.0445 36.1173 14.8632 36.0853 14.6712 36.096C14.4899 36.096 14.3139 36.1227 14.1432 36.176C13.8339 36.2507 13.5725 36.4107 13.3592 36.656C13.3379 36.6773 13.3005 36.7307 13.2472 36.816C13.1939 36.8907 13.1405 36.9707 13.0872 37.056C13.0445 37.1413 13.0125 37.2213 12.9912 37.296C12.9699 37.3707 12.9805 37.408 13.0232 37.408H16.1592C16.1485 37.2587 16.1219 37.136 16.0792 37.04C16.0365 36.9333 15.9619 36.8213 15.8552 36.704ZM19.1326 36.336C19.1326 36.208 19.1326 36.064 19.1326 35.904C19.1326 35.7333 19.1379 35.5627 19.1486 35.392C19.1592 35.2107 19.1752 35.04 19.1966 34.88C19.2286 34.7093 19.2712 34.56 19.3246 34.432C19.4099 34.24 19.5432 34.112 19.7246 34.048C19.9059 33.9733 20.1032 33.9413 20.3166 33.952C20.5406 33.952 20.7166 33.9893 20.8446 34.064C20.9726 34.1387 21.0686 34.24 21.1326 34.368C21.1966 34.4853 21.2339 34.624 21.2446 34.784C21.2659 34.9333 21.2766 35.0933 21.2766 35.264C21.3726 35.0933 21.5006 34.9547 21.6606 34.848C21.8312 34.7413 22.0019 34.656 22.1726 34.592C22.3432 34.528 22.4979 34.4853 22.6366 34.464C22.7752 34.432 22.8552 34.416 22.8766 34.416C23.1432 34.3947 23.3832 34.3893 23.5966 34.4C23.8206 34.4107 24.0659 34.4587 24.3326 34.544C24.5032 34.608 24.6792 34.6987 24.8606 34.816C25.0419 34.9227 25.2019 35.0507 25.3406 35.2C25.4792 35.3493 25.5699 35.5147 25.6126 35.696C25.6659 35.8667 25.6446 36.048 25.5486 36.24C25.3992 36.5067 25.2339 36.64 25.0526 36.64C24.8712 36.6293 24.6739 36.5973 24.4606 36.544C24.3432 36.5227 24.2046 36.4747 24.0446 36.4C23.8846 36.3253 23.7459 36.2773 23.6286 36.256C23.2659 36.2027 22.9459 36.2293 22.6686 36.336C22.3912 36.4427 22.1512 36.5707 21.9486 36.72C21.7139 36.9013 21.5112 37.1093 21.3406 37.344V39.648C21.3406 39.936 21.3352 40.2347 21.3246 40.544C21.3246 40.8533 21.2819 41.136 21.1966 41.392C21.1219 41.6373 20.9886 41.84 20.7966 42C20.6152 42.1493 20.3486 42.2133 19.9966 42.192C19.8046 42.1813 19.6339 42.0907 19.4846 41.92C19.3352 41.7387 19.2446 41.5627 19.2126 41.392C19.1912 41.232 19.1752 41.04 19.1646 40.816C19.1539 40.592 19.1432 40.3573 19.1326 40.112C19.1326 39.8667 19.1326 39.6213 19.1326 39.376C19.1326 39.12 19.1326 38.8853 19.1326 38.672V36.336ZM31.5211 35.232C31.7024 35.2853 31.8197 35.3867 31.8731 35.536C31.9264 35.6747 31.9424 35.824 31.9211 35.984C31.8571 36.3147 31.6757 36.5173 31.3771 36.592C31.2064 36.6347 31.0304 36.656 30.8491 36.656C30.6784 36.656 30.5024 36.6613 30.3211 36.672V40.368C30.3211 40.624 30.3051 40.8853 30.2731 41.152C30.2731 41.248 30.2464 41.3493 30.1931 41.456C30.1717 41.5093 30.1557 41.5413 30.1451 41.552C30.1451 41.5733 30.1344 41.6053 30.1131 41.648C30.0491 41.7653 29.9637 41.8613 29.8571 41.936C29.6224 42.064 29.3717 42.096 29.1051 42.032C28.9451 42 28.8224 41.9467 28.7371 41.872C28.6411 41.7973 28.5717 41.7067 28.5291 41.6C28.5077 41.5467 28.4917 41.4933 28.4811 41.44C28.4704 41.3867 28.4544 41.3333 28.4331 41.28C28.4224 41.2267 28.4117 41.1787 28.4011 41.136C28.4011 41.0827 28.4011 41.04 28.4011 41.008V40.08C28.4011 39.5253 28.4011 38.9493 28.4011 38.352C28.4117 37.7547 28.4171 37.1787 28.4171 36.624C28.1717 36.6133 27.9157 36.608 27.6491 36.608C27.3931 36.5973 27.2064 36.5333 27.0891 36.416C27.0251 36.352 26.9824 36.272 26.9611 36.176C26.9397 36.0693 26.9291 35.9627 26.9291 35.856C26.9397 35.7493 26.9611 35.6533 26.9931 35.568C27.0251 35.472 27.0677 35.4027 27.1211 35.36C27.2597 35.232 27.3824 35.1627 27.4891 35.152C27.6064 35.1307 27.7504 35.1147 27.9211 35.104C27.9424 35.104 28.0117 35.104 28.1291 35.104C28.2571 35.0933 28.3371 35.088 28.3691 35.088C28.3797 34.7253 28.3904 34.3627 28.4011 34C28.4117 33.6373 28.4437 33.3067 28.4971 33.008C28.5611 32.6987 28.6517 32.432 28.7691 32.208C28.8971 31.9733 29.0891 31.7973 29.3451 31.68C29.6544 31.5413 30.0064 31.456 30.4011 31.424C30.7957 31.392 31.1531 31.44 31.4731 31.568C31.6224 31.6213 31.7664 31.728 31.9051 31.888C32.0544 32.048 32.1237 32.224 32.1131 32.416C32.1024 32.608 32.0651 32.784 32.0011 32.944C31.9371 33.104 31.7984 33.2107 31.5851 33.264C31.4891 33.2853 31.3877 33.296 31.2811 33.296C31.1851 33.2853 31.0837 33.28 30.9771 33.28C30.8704 33.28 30.7691 33.296 30.6731 33.328C30.5877 33.3493 30.5131 33.3973 30.4491 33.472C30.3957 33.536 30.3584 33.6213 30.3371 33.728C30.3264 33.8347 30.3157 33.9467 30.3051 34.064C30.2944 34.1813 30.2891 34.2987 30.2891 34.416C30.2997 34.5227 30.3051 34.6133 30.3051 34.688V35.088C30.5504 35.1093 30.7744 35.1253 30.9771 35.136C31.1904 35.1467 31.3717 35.1787 31.5211 35.232ZM35.4294 35.936C35.4294 36.2347 35.4294 36.5707 35.4294 36.944C35.4401 37.3173 35.4454 37.7067 35.4454 38.112C35.4454 38.5067 35.4454 38.9013 35.4454 39.296C35.4454 39.68 35.4401 40.0373 35.4294 40.368C35.4188 40.528 35.4028 40.704 35.3814 40.896C35.3601 41.0773 35.3174 41.248 35.2534 41.408C35.1894 41.568 35.0881 41.7013 34.9494 41.808C34.8214 41.904 34.6454 41.9467 34.4214 41.936C34.0908 41.9147 33.8508 41.7707 33.7014 41.504C33.5628 41.2373 33.4828 40.864 33.4614 40.384C33.4614 40.1387 33.4561 39.856 33.4454 39.536C33.4454 39.216 33.4401 38.8907 33.4294 38.56C33.4294 38.2293 33.4294 37.9093 33.4294 37.6C33.4294 37.28 33.4294 36.992 33.4294 36.736C33.4294 36.5867 33.4241 36.4053 33.4134 36.192C33.4134 35.9787 33.4188 35.76 33.4294 35.536C33.4401 35.312 33.4668 35.0987 33.5094 34.896C33.5521 34.6827 33.6214 34.5067 33.7174 34.368C33.7921 34.2827 33.8988 34.2187 34.0374 34.176C34.1761 34.1227 34.3201 34.096 34.4694 34.096C34.6294 34.096 34.7788 34.1227 34.9174 34.176C35.0668 34.2293 35.1734 34.304 35.2374 34.4C35.2801 34.464 35.3121 34.5547 35.3334 34.672C35.3548 34.7893 35.3708 34.9227 35.3814 35.072C35.4028 35.2107 35.4134 35.36 35.4134 35.52C35.4241 35.6693 35.4294 35.808 35.4294 35.936ZM34.8214 32.704C34.4908 32.7893 34.2134 32.7573 33.9894 32.608C33.7761 32.448 33.6428 32.2133 33.5894 31.904C33.5468 31.68 33.5628 31.4827 33.6374 31.312C33.7121 31.1413 33.8241 31.0133 33.9734 30.928C34.1228 30.832 34.2934 30.7893 34.4854 30.8C34.6774 30.8107 34.8694 30.8853 35.0614 31.024C35.2428 31.152 35.3708 31.3013 35.4454 31.472C35.5308 31.6427 35.5574 31.808 35.5254 31.968C35.5041 32.128 35.4348 32.2773 35.3174 32.416C35.2001 32.544 35.0348 32.64 34.8214 32.704ZM39.1196 40.72C39.1089 40.7733 39.0982 40.8267 39.0876 40.88C39.0876 40.9227 39.0876 40.9707 39.0876 41.024L38.9916 41.36C38.9702 41.4027 38.9542 41.4293 38.9436 41.44L38.8956 41.536C38.8422 41.6533 38.7462 41.7493 38.6076 41.824C38.3516 41.952 38.0796 41.984 37.7916 41.92C37.6102 41.8987 37.4662 41.8453 37.3596 41.76C37.2529 41.6853 37.1782 41.5947 37.1356 41.488C37.0929 41.3813 37.0609 41.2747 37.0396 41.168C37.0076 41.0613 36.9916 40.9653 36.9916 40.88V31.92C36.9916 31.8453 36.9916 31.7813 36.9916 31.728C37.0022 31.664 37.0129 31.6053 37.0236 31.552C37.0342 31.4773 37.0449 31.4133 37.0556 31.36C37.0769 31.3067 37.0982 31.248 37.1196 31.184C37.1516 31.0773 37.2102 30.992 37.2956 30.928C37.4236 30.832 37.5462 30.7787 37.6636 30.768C37.7382 30.7467 37.8076 30.736 37.8716 30.736C37.9356 30.7253 38.0102 30.72 38.0956 30.72C38.2449 30.72 38.4156 30.7627 38.6076 30.848C38.7569 30.9333 38.8636 31.0507 38.9276 31.2C39.0342 31.4133 39.0876 31.6107 39.0876 31.792C39.0982 31.8987 39.1036 32.0587 39.1036 32.272C39.1142 32.4853 39.1196 32.6453 39.1196 32.752V32.816C39.1409 33.1573 39.1516 33.488 39.1516 33.808C39.1516 34.1173 39.1462 34.4587 39.1356 34.832C39.1356 35.1947 39.1302 35.5467 39.1196 35.888C39.1196 36.2187 39.1196 36.5493 39.1196 36.88V40.24C39.1196 40.2827 39.1196 40.3253 39.1196 40.368C39.1302 40.4 39.1356 40.4373 39.1356 40.48C39.1356 40.5867 39.1302 40.6667 39.1196 40.72Z" fill="#D9D9D9"/>
<g clip-path="url(#clip0_603_459)">
<path d="M21.5 11.4583C22.3241 11.4583 23.1297 11.214 23.8149 10.7561C24.5001 10.2983 25.0341 9.64754 25.3495 8.88618C25.6649 8.12482 25.7474 7.28705 25.5866 6.47879C25.4258 5.67054 25.029 4.92811 24.4463 4.34539C23.8636 3.76267 23.1211 3.36583 22.3129 3.20506C21.5046 3.04429 20.6668 3.12681 19.9055 3.44217C19.1441 3.75754 18.4934 4.29159 18.0355 4.97679C17.5777 5.662 17.3333 6.46758 17.3333 7.29167C17.3333 8.39674 17.7723 9.45655 18.5537 10.2379C19.3351 11.0193 20.3949 11.4583 21.5 11.4583ZM21.5 5.20833C21.912 5.20833 22.3148 5.33052 22.6574 5.55944C23 5.78836 23.2671 6.11373 23.4247 6.49441C23.5824 6.87509 23.6237 7.29398 23.5433 7.69811C23.4629 8.10223 23.2645 8.47345 22.9731 8.76481C22.6818 9.05617 22.3106 9.25459 21.9064 9.33497C21.5023 9.41536 21.0834 9.3741 20.7027 9.21642C20.3221 9.05874 19.9967 8.79171 19.7678 8.44911C19.5388 8.1065 19.4167 7.70371 19.4167 7.29167C19.4167 6.73913 19.6362 6.20923 20.0269 5.81853C20.4176 5.42783 20.9475 5.20833 21.5 5.20833Z" fill="white"/>
<path d="M21.5 13.5415C19.5661 13.5415 17.7115 14.3097 16.344 15.6772C14.9766 17.0446 14.2083 18.8993 14.2083 20.8332C14.2083 21.1094 14.3181 21.3744 14.5134 21.5697C14.7088 21.7651 14.9737 21.8748 15.25 21.8748C15.5263 21.8748 15.7912 21.7651 15.9866 21.5697C16.1819 21.3744 16.2917 21.1094 16.2917 20.8332C16.2917 19.4518 16.8404 18.1271 17.8172 17.1503C18.7939 16.1736 20.1187 15.6248 21.5 15.6248C22.8813 15.6248 24.2061 16.1736 25.1828 17.1503C26.1596 18.1271 26.7083 19.4518 26.7083 20.8332C26.7083 21.1094 26.8181 21.3744 27.0134 21.5697C27.2088 21.7651 27.4737 21.8748 27.75 21.8748C28.0263 21.8748 28.2912 21.7651 28.4866 21.5697C28.6819 21.3744 28.7917 21.1094 28.7917 20.8332C28.7917 18.8993 28.0234 17.0446 26.656 15.6772C25.2885 14.3097 23.4339 13.5415 21.5 13.5415Z" fill="white"/>
</g>
<defs>
<clipPath id="clip0_603_459">
<rect width="25" height="25" fill="white" transform="translate(9)"/>
</clipPath>
</defs>
</svg>
